<svg xmlns="http://www.w3.org/2000/svg" xmlns:xlink="http://www.w3.org/1999/xlink" width="22.933" height="22.932" viewBox="0 0 22.933 22.932">
  <defs>
    <clipPath id="clip-path">
      <path id="Clip_1048" data-name="Clip 1048" d="M22.933,11.466A11.467,11.467,0,0,1,11.466,22.932h0A11.466,11.466,0,0,1,0,11.466H0A11.466,11.466,0,0,1,11.466,0h0A11.467,11.467,0,0,1,22.933,11.466Z" fill="none"/>
    </clipPath>
  </defs>
  <g id="Group_1112" data-name="Group 1112" clip-path="url(#clip-path)">
    <path id="Fill_1047" data-name="Fill 1047" d="M39.361,1.819H0V0H39.361Z" transform="translate(-8.214 -0.503)" fill="#b22234"/>
    <path id="Fill_1049" data-name="Fill 1049" d="M39.361,1.82H0V0H39.361Z" transform="translate(-8.215 21.615)" fill="#b22234"/>
    <path id="Fill_1050" data-name="Fill 1050" d="M39.361,1.933H0V0H39.361Z" transform="translate(-8.215 19.682)" fill="#fff"/>
    <path id="Fill_1051" data-name="Fill 1051" d="M39.361,1.876H0V0H39.361Z" transform="translate(-8.214 1.316)" fill="#fff"/>
    <path id="Fill_1052" data-name="Fill 1052" d="M39.361,1.789H0V0H39.361Z" transform="translate(-8.214 3.192)" fill="#b22234"/>
    <path id="Fill_1053" data-name="Fill 1053" d="M39.361,1.652H0V0H39.361Z" transform="translate(-8.215 18.03)" fill="#b22234"/>
    <path id="Fill_1054" data-name="Fill 1054" d="M39.361,1.962H0V0H39.361Z" transform="translate(-8.215 16.067)" fill="#fff"/>
    <path id="Fill_1055" data-name="Fill 1055" d="M39.361,1.96H0V0H39.361Z" transform="translate(-8.214 4.981)" fill="#fff"/>
    <path id="Fill_1056" data-name="Fill 1056" d="M39.361,1.876H0V0H39.361Z" transform="translate(-8.215 14.191)" fill="#b22234"/>
    <path id="Fill_1057" data-name="Fill 1057" d="M39.361,1.793H0V0H39.361Z" transform="translate(-8.214 6.941)" fill="#b22234"/>
    <path id="Fill_1058" data-name="Fill 1058" d="M39.361,1.85H0V0H39.361Z" transform="translate(-8.214 8.734)" fill="#fff"/>
    <path id="Fill_1059" data-name="Fill 1059" d="M39.361,1.876H0V0H39.361Z" transform="translate(-8.215 12.316)" fill="#fff"/>
    <path id="Fill_1060" data-name="Fill 1060" d="M39.361,1.731H0V0H39.361Z" transform="translate(-8.215 10.585)" fill="#b22234"/>
    <path id="Fill_1061" data-name="Fill 1061" d="M15.734,12.819H0V0H15.734Z" transform="translate(15.413 -0.504)" fill="#3c3b6e"/>
    <path id="Fill_1062" data-name="Fill 1062" d="M1.242.517H.783L.612,0,.468.517H0L.374.864.23,1.38l.382-.346.374.346L.876.864Z" transform="translate(29.435 -0.023)" fill="#fff"/>
    <path id="Fill_1063" data-name="Fill 1063" d="M1.242.517H.783L.614,0,.469.517H0L.375.864.231,1.38l.383-.346.373.346L.877.864Z" transform="translate(26.725 -0.023)" fill="#fff"/>
    <path id="Fill_1064" data-name="Fill 1064" d="M1.242.517H.782L.612,0,.467.517H0L.375.864.23,1.38l.382-.346.374.346L.876.864Z" transform="translate(24.017 -0.023)" fill="#fff"/>
    <path id="Fill_1065" data-name="Fill 1065" d="M1.242.517H.783L.612,0,.468.517H0L.374.864.229,1.38l.382-.346.374.346L.876.864Z" transform="translate(21.308 -0.023)" fill="#fff"/>
    <path id="Fill_1066" data-name="Fill 1066" d="M1.241.517H.781L.612,0,.468.517H0L.374.864.23,1.38l.382-.346.374.346L.877.864Z" transform="translate(18.6 -0.023)" fill="#fff"/>
    <path id="Fill_1067" data-name="Fill 1067" d="M1.242.517H.783L.613,0,.468.517H0L.375.864.231,1.38l.382-.346.374.346L.877.864Z" transform="translate(15.89 -0.023)" fill="#fff"/>
    <path id="Fill_1068" data-name="Fill 1068" d="M1.242.517H.783L.612,0,.468.517H0L.374.865.23,1.382l.382-.347.374.347L.876.865Z" transform="translate(29.435 2.569)" fill="#fff"/>
    <path id="Fill_1069" data-name="Fill 1069" d="M1.242.517H.783L.614,0,.469.517H0L.375.865l-.144.517.383-.347.373.347L.877.865Z" transform="translate(26.725 2.569)" fill="#fff"/>
    <path id="Fill_1070" data-name="Fill 1070" d="M1.242.517H.782L.612,0,.467.517H0L.375.865.23,1.382l.382-.347.374.347L.876.865Z" transform="translate(24.017 2.569)" fill="#fff"/>
    <path id="Fill_1071" data-name="Fill 1071" d="M1.242.517H.783L.612,0,.468.517H0L.374.865l-.145.517.382-.347.374.347L.876.865Z" transform="translate(21.308 2.569)" fill="#fff"/>
    <path id="Fill_1072" data-name="Fill 1072" d="M1.241.517H.781L.612,0,.468.517H0L.374.865.23,1.382l.382-.347.374.347L.877.865Z" transform="translate(18.6 2.569)" fill="#fff"/>
    <path id="Fill_1073" data-name="Fill 1073" d="M1.242.517H.783L.613,0,.468.517H0L.375.865l-.144.517.382-.347.374.347L.877.865Z" transform="translate(15.89 2.569)" fill="#fff"/>
    <path id="Fill_1074" data-name="Fill 1074" d="M1.242.517H.783L.612,0,.468.517H0L.374.864.23,1.38l.382-.346.374.346L.876.864Z" transform="translate(29.435 5.077)" fill="#fff"/>
    <path id="Fill_1075" data-name="Fill 1075" d="M1.242.517H.783L.614,0,.469.517H0L.375.864.231,1.38l.383-.346.373.346L.877.864Z" transform="translate(26.725 5.077)" fill="#fff"/>
    <path id="Fill_1076" data-name="Fill 1076" d="M1.242.517H.782L.612,0,.467.517H0L.375.864.23,1.38l.382-.346.374.346L.876.864Z" transform="translate(24.017 5.077)" fill="#fff"/>
    <path id="Fill_1077" data-name="Fill 1077" d="M1.242.517H.783L.612,0,.468.517H0L.374.864.229,1.38l.382-.346.374.346L.876.864Z" transform="translate(21.308 5.077)" fill="#fff"/>
    <path id="Fill_1078" data-name="Fill 1078" d="M1.241.517H.781L.612,0,.468.517H0L.374.864.23,1.38l.382-.346.374.346L.877.864Z" transform="translate(18.6 5.077)" fill="#fff"/>
    <path id="Fill_1079" data-name="Fill 1079" d="M1.242.517H.783L.613,0,.468.517H0L.375.864.231,1.38l.382-.346.374.346L.877.864Z" transform="translate(15.89 5.077)" fill="#fff"/>
    <path id="Fill_1080" data-name="Fill 1080" d="M1.242.517H.783L.613,0,.468.517H0L.375.865.23,1.382l.383-.349.374.349L.876.865Z" transform="translate(29.423 7.697)" fill="#fff"/>
    <path id="Fill_1081" data-name="Fill 1081" d="M1.241.517H.781L.612,0,.467.517H0L.374.865l-.144.517.382-.349.374.349L.875.865Z" transform="translate(26.715 7.697)" fill="#fff"/>
    <path id="Fill_1082" data-name="Fill 1082" d="M1.242.517H.782L.612,0,.468.517H0L.374.865.23,1.382l.382-.349.374.349L.876.865Z" transform="translate(24.005 7.697)" fill="#fff"/>
    <path id="Fill_1083" data-name="Fill 1083" d="M1.241.517H.783L.613,0,.468.517H0L.374.865l-.144.517.382-.349.373.349L.876.865Z" transform="translate(21.296 7.697)" fill="#fff"/>
    <path id="Fill_1084" data-name="Fill 1084" d="M1.241.517H.782L.612,0,.468.517H0L.375.865l-.146.517.382-.349.374.349L.876.865Z" transform="translate(18.588 7.697)" fill="#fff"/>
    <path id="Fill_1085" data-name="Fill 1085" d="M1.242.517H.783L.612,0,.467.517H0L.374.865.23,1.382l.382-.349.374.349L.876.865Z" transform="translate(15.879 7.697)" fill="#fff"/>
    <path id="Fill_1086" data-name="Fill 1086" d="M1.242.517H.783L.613,0,.468.517H0L.375.864.23,1.381l.383-.346.374.346L.876.864Z" transform="translate(29.423 10.233)" fill="#fff"/>
    <path id="Fill_1087" data-name="Fill 1087" d="M1.241.517H.781L.612,0,.467.517H0L.374.864l-.144.517.382-.346.374.346L.875.864Z" transform="translate(26.715 10.233)" fill="#fff"/>
    <path id="Fill_1088" data-name="Fill 1088" d="M1.242.517H.782L.612,0,.468.517H0L.374.864.23,1.381l.382-.346.374.346L.876.864Z" transform="translate(24.005 10.233)" fill="#fff"/>
    <path id="Fill_1089" data-name="Fill 1089" d="M1.241.517H.783L.613,0,.468.517H0L.374.864l-.144.517.382-.346.373.346L.876.864Z" transform="translate(21.296 10.233)" fill="#fff"/>
    <path id="Fill_1090" data-name="Fill 1090" d="M1.241.517H.782L.612,0,.468.517H0L.375.864l-.146.517.382-.346.374.346L.876.864Z" transform="translate(18.588 10.233)" fill="#fff"/>
    <path id="Fill_1091" data-name="Fill 1091" d="M1.242.517H.783L.612,0,.467.517H0L.374.864.23,1.381l.382-.346.374.346L.876.864Z" transform="translate(15.879 10.233)" fill="#fff"/>
    <path id="Fill_1092" data-name="Fill 1092" d="M1.242.518H.782L.612,0,.467.518H0L.375.866.23,1.382l.382-.346.374.346L.876.866Z" transform="translate(28.082 8.924)" fill="#fff"/>
    <path id="Fill_1093" data-name="Fill 1093" d="M1.241.518H.781L.612,0,.467.518H0L.374.866l-.145.516.383-.346.374.346L.875.866Z" transform="translate(25.374 8.924)" fill="#fff"/>
    <path id="Fill_1094" data-name="Fill 1094" d="M1.242.518H.783L.613,0,.468.518H0L.375.866l-.144.516.382-.346.374.346L.877.866Z" transform="translate(22.664 8.924)" fill="#fff"/>
    <path id="Fill_1095" data-name="Fill 1095" d="M1.242.518H.782L.612,0,.467.518H0L.374.866.23,1.382l.382-.346.374.346L.876.866Z" transform="translate(19.956 8.924)" fill="#fff"/>
    <path id="Fill_1096" data-name="Fill 1096" d="M1.242.518H.782L.612,0,.468.518H0L.374.866l-.144.516.382-.346.374.346L.876.866Z" transform="translate(17.247 8.924)" fill="#fff"/>
    <path id="Fill_1097" data-name="Fill 1097" d="M1.242.517H.782L.612,0,.467.517H0L.375.864.23,1.382l.382-.347.374.347L.876.864Z" transform="translate(28.082 6.389)" fill="#fff"/>
    <path id="Fill_1098" data-name="Fill 1098" d="M1.241.517H.781L.612,0,.467.517H0L.374.864l-.145.517.383-.347.374.347L.875.864Z" transform="translate(25.374 6.389)" fill="#fff"/>
    <path id="Fill_1099" data-name="Fill 1099" d="M1.242.517H.783L.613,0,.468.517H0L.375.864l-.144.517.382-.347.374.347L.877.864Z" transform="translate(22.664 6.389)" fill="#fff"/>
    <path id="Fill_1100" data-name="Fill 1100" d="M1.242.517H.782L.612,0,.467.517H0L.374.864.23,1.382l.382-.347.374.347L.876.864Z" transform="translate(19.956 6.389)" fill="#fff"/>
    <path id="Fill_1101" data-name="Fill 1101" d="M1.242.517H.782L.612,0,.468.517H0L.374.864l-.144.517.382-.347.374.347L.876.864Z" transform="translate(17.247 6.389)" fill="#fff"/>
    <path id="Fill_1102" data-name="Fill 1102" d="M1.241.518H.781L.612,0,.467.518H0L.374.864.23,1.381l.382-.346.374.346L.876.864Z" transform="translate(28.055 3.825)" fill="#fff"/>
    <path id="Fill_1103" data-name="Fill 1103" d="M1.242.518H.783L.613,0,.469.518H0L.376.864l-.145.517.382-.346.374.346L.877.864Z" transform="translate(25.345 3.825)" fill="#fff"/>
    <path id="Fill_1104" data-name="Fill 1104" d="M1.242.518H.783L.612,0,.468.518H0L.374.864l-.144.517.382-.346.374.346L.876.864Z" transform="translate(22.636 3.825)" fill="#fff"/>
    <path id="Fill_1105" data-name="Fill 1105" d="M1.241.518H.782L.612,0,.467.518H0L.373.864l-.144.517.383-.346.374.346L.875.864Z" transform="translate(19.928 3.825)" fill="#fff"/>
    <path id="Fill_1106" data-name="Fill 1106" d="M1.242.518H.782L.612,0,.467.518H0L.374.864.23,1.381l.382-.346.374.346L.876.864Z" transform="translate(17.219 3.825)" fill="#fff"/>
    <path id="Fill_1107" data-name="Fill 1107" d="M1.241.517H.781L.612,0,.467.517H0L.374.864.23,1.381l.382-.348.374.348L.876.864Z" transform="translate(28.055 1.29)" fill="#fff"/>
    <path id="Fill_1108" data-name="Fill 1108" d="M1.242.517H.783L.613,0,.469.517H0L.376.864l-.145.517.382-.348.374.348L.877.864Z" transform="translate(25.345 1.29)" fill="#fff"/>
    <path id="Fill_1109" data-name="Fill 1109" d="M1.242.517H.783L.612,0,.468.517H0L.374.864l-.144.517.382-.348.374.348L.876.864Z" transform="translate(22.636 1.29)" fill="#fff"/>
    <path id="Fill_1110" data-name="Fill 1110" d="M1.241.517H.782L.612,0,.467.517H0L.373.864l-.144.517.383-.348.374.348L.875.864Z" transform="translate(19.928 1.29)" fill="#fff"/>
    <path id="Fill_1111" data-name="Fill 1111" d="M1.242.517H.782L.612,0,.467.517H0L.374.864.23,1.381l.382-.348.374.348L.876.864Z" transform="translate(17.219 1.29)" fill="#fff"/>
  </g>
</svg>
