<svg xmlns="http://www.w3.org/2000/svg" width="17.011" height="14.875" viewBox="0 0 17.011 14.875">
  <g id="_" data-name=" " transform="translate(-333.375 -702.619)" style="isolation: isolate">
    <g id="Group_55300" data-name="Group 55300" style="isolation: isolate">
      <path id="Path_53803" data-name="Path 53803" d="M336.938,717.328a.484.484,0,0,1-.73,0l-2.656-2.656a.462.462,0,0,1-.133-.565.492.492,0,0,1,.5-.332h1.594V703.15a.512.512,0,0,1,.531-.531H337.1a.513.513,0,0,1,.532.531v10.625h1.593a.494.494,0,0,1,.5.332.462.462,0,0,1-.133.565Zm12.916-12.584a.512.512,0,0,0,.532-.531V703.15a.513.513,0,0,0-.532-.531h-8.5a.513.513,0,0,0-.531.531v1.063a.512.512,0,0,0,.531.531Zm-9.031,2.656a.513.513,0,0,1,.531-.531h6.375a.513.513,0,0,1,.532.531v1.063a.512.512,0,0,1-.532.531h-6.375a.512.512,0,0,1-.531-.531Zm0,4.25a.513.513,0,0,1,.531-.531h4.25a.513.513,0,0,1,.532.531v1.063a.512.512,0,0,1-.532.531h-4.25a.512.512,0,0,1-.531-.531Zm0,4.25a.513.513,0,0,1,.531-.531h2.125a.513.513,0,0,1,.532.531v1.063a.512.512,0,0,1-.532.531h-2.125a.512.512,0,0,1-.531-.531Z" fill="#fff"/>
    </g>
  </g>
</svg>
