<svg xmlns="http://www.w3.org/2000/svg" xmlns:xlink="http://www.w3.org/1999/xlink" width="118.026" height="160.827" viewBox="0 0 118.026 160.827">
  <defs>
    <linearGradient id="linear-gradient" x1="4.137" y1="0.016" x2="4.137" y2="0.954" gradientUnits="objectBoundingBox">
      <stop offset="0.038" stop-color="#0cf"/>
      <stop offset="1" stop-color="#0077f3"/>
    </linearGradient>
    <linearGradient id="linear-gradient-2" x1="-0.795" y1="-0.729" x2="2.128" y2="2.044" xlink:href="#linear-gradient"/>
    <linearGradient id="linear-gradient-3" x1="-1.906" y1="-1.899" x2="1.814" y2="1.813" xlink:href="#linear-gradient"/>
    <linearGradient id="linear-gradient-4" x1="-4.18" y1="-2.464" x2="1.836" y2="1.344" xlink:href="#linear-gradient"/>
    <linearGradient id="linear-gradient-5" x1="-3.607" y1="-1.785" x2="0.999" y2="0.963" xlink:href="#linear-gradient"/>
    <linearGradient id="linear-gradient-6" x1="-3.434" y1="-3.254" x2="0.465" y2="0.458" xlink:href="#linear-gradient"/>
    <linearGradient id="linear-gradient-7" x1="-4.84" y1="-2.662" x2="-0.156" y2="0.186" xlink:href="#linear-gradient"/>
    <linearGradient id="linear-gradient-8" x1="-5.489" y1="-4.592" x2="-1.019" y2="-0.785" xlink:href="#linear-gradient"/>
    <linearGradient id="linear-gradient-9" x1="-4.86" y1="-4.951" x2="-1.208" y2="-1.239" xlink:href="#linear-gradient"/>
    <linearGradient id="linear-gradient-10" x1="-6.026" y1="-5.502" x2="-2.029" y2="-1.759" xlink:href="#linear-gradient"/>
    <linearGradient id="linear-gradient-11" x1="-6.378" y1="-6.056" x2="-2.478" y2="-2.343" xlink:href="#linear-gradient"/>
  </defs>
  <g id="Group_10566" data-name="Group 10566" transform="translate(-448.235 -321.976)">
    <g id="Group_10563" data-name="Group 10563" transform="translate(466.579 321.976)">
      <path id="Path_9840" data-name="Path 9840" d="M537.76,375.536a9.727,9.727,0,0,0-7.114,2.406l-10.838,9.513a3.122,3.122,0,0,1-4.238-.088l-9.4-8.971a9.774,9.774,0,0,0-14.094.624l-12.51,14.251V361.81a7.315,7.315,0,0,1,4.25-6.652c.916-.421,1.975-.881,3.159-1.358,2.735-11.064,11.6-36.769,34.112-30.987,0,0-24.568-.8-27.95,31.11a50.982,50.982,0,0,0-.108,8.749l4.759-1.069a100.493,100.493,0,0,1,1.221-11.586,80.787,80.787,0,0,1,35.594-.3c-6.041-22.87-20.438-20.634-20.438-20.634,21.536-9.976,28.006,32.2,28.006,32.2h-.111c.043.309.081.611.111.9l4.823.622a38.34,38.34,0,0,0-1.273-9.819c1.811.673,3.639,1.419,5.482,2.253a7.364,7.364,0,0,1,4.348,6.7v29.722l-11.065-12.768A9.713,9.713,0,0,0,537.76,375.536Z" transform="translate(-479.563 -321.976)" fill="url(#linear-gradient)"/>
      <path id="Path_9841" data-name="Path 9841" d="M479.66,445.817l17.4-19.828a3.139,3.139,0,0,1,4.525-.2l9.4,8.971a9.723,9.723,0,0,0,13.2.275l10.839-9.513a3.139,3.139,0,0,1,4.442.3l16.08,18.555v1.243a14.764,14.764,0,0,1-14.764,14.764H494.332a14.761,14.761,0,0,1-14.759-14.647Z" transform="translate(-479.567 -364.568)" fill="#18304b"/>
    </g>
    <g id="Group_10564" data-name="Group 10564" transform="translate(448.349 467.948)">
      <path id="Path_9842" data-name="Path 9842" d="M461.28,571.465a1.112,1.112,0,0,0-.706.273l-5.195,6.379-5.262-6.379a.928.928,0,0,0-.707-.273.952.952,0,0,0-.98.957v12.645a.991.991,0,0,0,1.982,0V574.951l4.306,5.308a.839.839,0,0,0,1.3,0l4.283-5.308v10.116a.987.987,0,0,0,.98.98.972.972,0,0,0,.98-.98V572.422A.967.967,0,0,0,461.28,571.465Z" transform="translate(-448.43 -571.351)" fill="url(#linear-gradient-2)"/>
      <path id="Path_9843" data-name="Path 9843" d="M481.077,578.041a5.445,5.445,0,0,0-5.445,5.445,5.32,5.32,0,0,0,5.263,5.445,5.14,5.14,0,0,0,3.623-1.367v.182a1,1,0,0,0,1,1.025.957.957,0,0,0,.979-1.025v-4.26A5.411,5.411,0,0,0,481.077,578.041Zm0,9a3.566,3.566,0,1,1,0-7.131,3.566,3.566,0,0,1,0,7.131Z" transform="translate(-459.704 -574.077)" fill="url(#linear-gradient-3)"/>
      <path id="Path_9844" data-name="Path 9844" d="M503.013,578.235c-3.3,0-5.627,1.754-5.627,5.6v4.033a.991.991,0,0,0,1,.98.967.967,0,0,0,.956-.98v-3.9a3.466,3.466,0,0,1,3.759-3.782.967.967,0,0,0,1-1C504.106,578.714,503.811,578.235,503.013,578.235Z" transform="translate(-468.72 -574.157)" fill="url(#linear-gradient-4)"/>
      <path id="Path_9845" data-name="Path 9845" d="M515.2,580.042l3.145-2.985a.942.942,0,0,0,.022-1.344v-.023a.95.95,0,0,0-1.367-.045l-4.42,4.306v-7.7a.958.958,0,0,0-.98-.979.987.987,0,0,0-.98.979v12.736a.98.98,0,1,0,1.959,0v-2.46l1.254-1.185,3.873,4.328a.975.975,0,1,0,1.412-1.344Z" transform="translate(-474.204 -571.271)" fill="url(#linear-gradient-5)"/>
      <path id="Path_9846" data-name="Path 9846" d="M531.637,578.041a5.446,5.446,0,0,0-.046,10.89,5.058,5.058,0,0,0,3.759-1.436,1.067,1.067,0,0,0,.16-1.367.981.981,0,0,0-1.458.023,3.381,3.381,0,0,1-2.392.888,3.436,3.436,0,0,1-3.349-2.712h7.449c.593,0,.867-.5.867-1.207A4.978,4.978,0,0,0,531.637,578.041Zm-3.3,4.488a3.494,3.494,0,0,1,3.372-2.62,3.046,3.046,0,0,1,3.167,2.62Z" transform="translate(-480.688 -574.077)" fill="url(#linear-gradient-6)"/>
      <path id="Path_9847" data-name="Path 9847" d="M553.748,583.767a3.468,3.468,0,0,1-2.506.935c-1.367,0-2.8-1-2.8-3.326v-3.691H552.9a.91.91,0,0,0,.98-.935.922.922,0,0,0-.98-.934H548.44v-2.392a1,1,0,0,0-.98-1.025,1.048,1.048,0,0,0-1,1.025v7.837c0,3.646,2.324,5.332,4.739,5.332a4.756,4.756,0,0,0,3.509-1.367,1.007,1.007,0,0,0,.251-1.276A.878.878,0,0,0,553.748,583.767Z" transform="translate(-489.058 -571.738)" fill="url(#linear-gradient-7)"/>
      <path id="Path_9848" data-name="Path 9848" d="M580.868,586.984h-5.24l5.673-6.926a1.27,1.27,0,0,0,.365-.911,1.075,1.075,0,0,0-1.14-.912H573.9a.96.96,0,0,0-.98.912.983.983,0,0,0,.98.957h4.921l-5.65,6.9a1.231,1.231,0,0,0-.365.843,1.014,1.014,0,0,0,1.025,1h7.04a.935.935,0,1,0,0-1.868Z" transform="translate(-499.978 -574.157)" fill="url(#linear-gradient-8)"/>
      <path id="Path_9849" data-name="Path 9849" d="M594.473,578.041a5.446,5.446,0,1,0,5.513,5.445A5.47,5.47,0,0,0,594.473,578.041Zm0,9a3.566,3.566,0,1,1,3.554-3.554A3.521,3.521,0,0,1,594.473,587.04Z" transform="translate(-506.655 -574.077)" fill="url(#linear-gradient-9)"/>
      <path id="Path_9850" data-name="Path 9850" d="M615.592,578.041a5.087,5.087,0,0,0-5.08,5.217v4.6a.992.992,0,0,0,1,.98.953.953,0,0,0,.956-.98v-4.694a3.149,3.149,0,0,1,3.145-3.258,3.043,3.043,0,0,1,3.03,3.258v4.694a1.013,1.013,0,0,0,1.025.98.953.953,0,0,0,.957-.98v-4.6A5.05,5.05,0,0,0,615.592,578.041Z" transform="translate(-515.607 -574.077)" fill="url(#linear-gradient-10)"/>
      <path id="Path_9851" data-name="Path 9851" d="M635.852,578.041a5.446,5.446,0,0,0-.046,10.89,5.059,5.059,0,0,0,3.759-1.436,1.066,1.066,0,0,0,.159-1.367.98.98,0,0,0-1.458.023,3.381,3.381,0,0,1-2.392.888,3.436,3.436,0,0,1-3.349-2.712h7.449c.593,0,.867-.5.867-1.207A4.978,4.978,0,0,0,635.852,578.041Zm-3.3,4.488a3.494,3.494,0,0,1,3.372-2.62,3.046,3.046,0,0,1,3.168,2.62Z" transform="translate(-523.881 -574.077)" fill="url(#linear-gradient-11)"/>
    </g>
    <g id="Group_10565" data-name="Group 10565" transform="translate(448.235 439.003)">
      <path id="Path_9852" data-name="Path 9852" d="M451.053,538.3a2.881,2.881,0,0,0,.3,1.244,4.458,4.458,0,0,0,.826,1.178,3.691,3.691,0,0,0,1.09.771,3.08,3.08,0,0,0,1.288.265,2.959,2.959,0,0,0,1.255-.265,4.309,4.309,0,0,0,1.1-.748l-.022.022a4.5,4.5,0,0,0,.792-1.178,3.077,3.077,0,0,0,.286-1.288v-7.837a2.566,2.566,0,0,1,.837-1.938h-.022a3.131,3.131,0,0,1,.738-.528,3.306,3.306,0,0,1,1.354-.286v10.347l-.264,1.827a6.174,6.174,0,0,1-.649,1.607,6.74,6.74,0,0,1-.914,1.211,6.127,6.127,0,0,1-4.491,1.871,6.543,6.543,0,0,1-2.488-.474,6.27,6.27,0,0,1-2.091-1.4,5.969,5.969,0,0,1-1.74-4.4v-6.34a4.166,4.166,0,0,1,1.222.264,2.471,2.471,0,0,1,.8.529v-.022a2.741,2.741,0,0,1,.793,2.025Zm1.827-13.209a1.819,1.819,0,0,1,.5-1.31,1.733,1.733,0,0,1,1.31-.516,1.672,1.672,0,0,1,1.277.516,1.846,1.846,0,0,1,.484,1.31,1.775,1.775,0,0,1-.484,1.276,1.684,1.684,0,0,1-1.277.507,1.717,1.717,0,0,1-1.805-1.784Z" transform="translate(-448.235 -522.431)" fill="#18304b"/>
      <path id="Path_9853" data-name="Path 9853" d="M483.659,543.389H480.18a6.758,6.758,0,0,1-2.4-.43,7.317,7.317,0,0,1-2.179-1.31,5.777,5.777,0,0,1-1.3-2.025,6.865,6.865,0,0,1-.463-2.51,6.017,6.017,0,0,1,.484-2.432,7.793,7.793,0,0,1,1.321-2.059,8.346,8.346,0,0,1,2.135-1.3,6.349,6.349,0,0,1,4.755,0,8.35,8.35,0,0,1,2.136,1.3A7.98,7.98,0,0,1,486,534.693a5.925,5.925,0,0,1,.5,2.422v10.677a3.209,3.209,0,0,1-1.222-.308,2.759,2.759,0,0,1-.869-.638,3.335,3.335,0,0,1-.54-.837,2.535,2.535,0,0,1-.209-1.056Zm0-2.708v-3.567a2.828,2.828,0,0,0-.32-1.321,4.938,4.938,0,0,0-.825-1.145,3.174,3.174,0,0,0-4.689,0,4.65,4.65,0,0,0-.815,1.145,2.905,2.905,0,0,0-.308,1.321,2.82,2.82,0,0,0,.308,1.321,5.241,5.241,0,0,0,.815,1.145v-.022a4.361,4.361,0,0,0,1.122.837,2.674,2.674,0,0,0,1.211.286Z" transform="translate(-458.847 -525.578)" fill="#18304b"/>
      <path id="Path_9854" data-name="Path 9854" d="M499.671,523.66a1.784,1.784,0,1,1,3.566,0,1.816,1.816,0,0,1-.5,1.309,1.861,1.861,0,0,1-2.576,0A1.816,1.816,0,0,1,499.671,523.66Zm.22,6.186a1.767,1.767,0,0,1,.2-.98,2.9,2.9,0,0,1,.66-.847,4.265,4.265,0,0,1,.946-.639,3.288,3.288,0,0,1,1.1-.33v14.134a2.324,2.324,0,0,1-.22.969,3.108,3.108,0,0,1-.605.881,3.355,3.355,0,0,1-.913.661,3.064,3.064,0,0,1-1.167.308Z" transform="translate(-469.553 -521.854)" fill="#18304b"/>
      <path id="Path_9855" data-name="Path 9855" d="M531.918,536.941a3.32,3.32,0,0,0,1.353-.3,3.853,3.853,0,0,0,1.178-.8l-.022.022a4.485,4.485,0,0,0,.671-1.1,3.4,3.4,0,0,0,.253-1.343V529.9a2.8,2.8,0,0,1,.2-1.09,2.537,2.537,0,0,1,.55-.826,2.928,2.928,0,0,1,.814-.583,3.487,3.487,0,0,1,1.343-.231v6.252a6.023,6.023,0,0,1-.254,1.772,7.592,7.592,0,0,1-.826,1.75h2.664v2.708H519.17a6.544,6.544,0,0,1-2.422-.451,5.662,5.662,0,0,1-1.959-1.266h.022a6.411,6.411,0,0,1-1.464-2.08,6.033,6.033,0,0,1-.518-2.455v-6.341a4.6,4.6,0,0,1,1.244.364,2.992,2.992,0,0,1,.848.561,2.878,2.878,0,0,1,.594.87,2.559,2.559,0,0,1,.22,1.046v3.5a3.8,3.8,0,0,0,.2,1.309,3.322,3.322,0,0,0,.7,1.09,4.026,4.026,0,0,0,1.222.859,3.167,3.167,0,0,0,1.288.286ZM522.011,523.6a1.6,1.6,0,0,1,.562-1.289,2.032,2.032,0,0,1,1.354-.473,1.809,1.809,0,0,1,1.266.473,1.664,1.664,0,0,1,.517,1.289,1.815,1.815,0,0,1-.517,1.321,1.705,1.705,0,0,1-1.266.528,1.9,1.9,0,0,1-1.354-.528A1.738,1.738,0,0,1,522.011,523.6Zm4.183,0a1.678,1.678,0,0,1,.507-1.289,1.769,1.769,0,0,1,1.254-.473,1.909,1.909,0,0,1,1.321.473,1.643,1.643,0,0,1,.529,1.289,1.806,1.806,0,0,1-1.85,1.849,1.669,1.669,0,0,1-1.254-.528A1.831,1.831,0,0,1,526.193,523.6Z" transform="translate(-475.007 -521.838)" fill="#18304b"/>
      <path id="Path_9856" data-name="Path 9856" d="M582,531.885v2.884a6.716,6.716,0,0,1-.495,2.543,7.992,7.992,0,0,1-1.4,2.257l-.2.044a7.343,7.343,0,0,1-.9.661,5.823,5.823,0,0,1-.837.44,8.179,8.179,0,0,1-1.255.33,7.268,7.268,0,0,1-1.343.132h-18.45v-2.708h18.45a3.017,3.017,0,0,0,1.309-.309,4.215,4.215,0,0,0,1.178-.836l-.022.022a7.214,7.214,0,0,0,.792-1.178,3.241,3.241,0,0,0,.4-1.354H566.06q-.353,0-.672-.011a3.968,3.968,0,0,1-.562-.055H564.6a.579.579,0,0,1-.21-.022h-.044l-.176-.022c-.074-.015-.173-.036-.3-.066a1.21,1.21,0,0,1-.364-.154l.022.022a6.3,6.3,0,0,1-1.574-.748q-.738-.484-1.42-.99l-.22-.22h.022a.53.53,0,0,0-.077-.067q-.033-.021-.054-.132a.412.412,0,0,1-.1-.176.769.769,0,0,1-.033-.22,7.386,7.386,0,0,1,.528-2.477,8.056,8.056,0,0,1,1.387-2.278,5.62,5.62,0,0,1,1.993-1.244,7.323,7.323,0,0,1,2.565-.429h10.832a4.405,4.405,0,0,1-.331,1.255,2.68,2.68,0,0,1-.506.748,5.371,5.371,0,0,1-.958.65,2.424,2.424,0,0,1-1.156.275h-7.881a3.424,3.424,0,0,0-1.42.265,3.926,3.926,0,0,0-1.178.881,2.959,2.959,0,0,0-1.145,2.245Z" transform="translate(-493.364 -523.365)" fill="#18304b"/>
      <path id="Path_9857" data-name="Path 9857" d="M604.755,533.57a1.667,1.667,0,0,1,.2-.946,3.208,3.208,0,0,1,.649-.847,3.333,3.333,0,0,1,.958-.628,3.429,3.429,0,0,1,1.123-.286v14.047a2.332,2.332,0,0,1-.22.968,3.107,3.107,0,0,1-.605.881,3.3,3.3,0,0,1-.925.661,3.151,3.151,0,0,1-1.177.308Z" transform="translate(-513.103 -525.578)" fill="#18304b"/>
      <path id="Path_9858" data-name="Path 9858" d="M620.728,540.179h-5.966V523.117a3.987,3.987,0,0,1,1.21.275,2.254,2.254,0,0,1,.771.518,2.357,2.357,0,0,1,.627.9,2.963,2.963,0,0,1,.209,1.1v11.558h3.148Z" transform="translate(-517.254 -522.368)" fill="#18304b"/>
      <path id="Path_9859" data-name="Path 9859" d="M622.431,543.4V540.7H625.8v-3.544a6.051,6.051,0,0,1,.484-2.466,6.635,6.635,0,0,1,1.409-2.026,6.267,6.267,0,0,1,1.96-1.3,6.374,6.374,0,0,1,2.488-.463,5.921,5.921,0,0,1,2.476.5,8.184,8.184,0,0,1,2.036,1.332,6.16,6.16,0,0,1,1.805,4.425,6.916,6.916,0,0,1-.44,2.466,5.655,5.655,0,0,1-1.365,2.069,6.395,6.395,0,0,1-4.535,1.717Zm6.341-2.708h3.369a3.274,3.274,0,0,0,1.331-.275,4.476,4.476,0,0,0,1.156-.738,7.428,7.428,0,0,0,.7-1.233,3.154,3.154,0,0,0,.286-1.3,3.194,3.194,0,0,0-.276-1.321,4.493,4.493,0,0,0-.715-1.123v.022a3.7,3.7,0,0,0-1.178-.793,3.336,3.336,0,0,0-1.309-.286,2.893,2.893,0,0,0-1.244.3,4.494,4.494,0,0,0-1.112.738,5.83,5.83,0,0,0-.715,1.166,3.047,3.047,0,0,0-.3,1.3Z" transform="translate(-520.432 -525.594)" fill="#18304b"/>
    </g>
  </g>
</svg>
