<svg xmlns="http://www.w3.org/2000/svg" width="90.633" height="159.103" viewBox="0 0 90.633 159.103">
  <g id="logo" transform="translate(-297.406 -283.927)">
    <g id="Group_55188" data-name="Group 55188" transform="translate(297.406 395.044)">
      <path id="Path_33656" data-name="Path 33656" d="M463.895,529.94V510.22a1.959,1.959,0,1,1,3.917,0v18.9c0,3.1,1.64,4.737,4.053,4.782a1.733,1.733,0,0,1,1.686,1.958c0,1.047-.774,1.867-2.459,1.867C466.855,537.728,463.895,535.315,463.895,529.94Z" transform="translate(-463.895 -508.216)" fill="#18304b"/>
      <path id="Path_33657" data-name="Path 33657" d="M509.646,537.277v8.517a1.913,1.913,0,0,1-1.959,2.049,2,2,0,0,1-2-2.049v-.364a10.275,10.275,0,0,1-7.241,2.732,10.636,10.636,0,0,1-10.521-10.885,10.862,10.862,0,1,1,21.724,0Zm-3.734,0a7.067,7.067,0,0,0-7.105-7.15,7.127,7.127,0,1,0,0,14.255A7.085,7.085,0,0,0,505.912,537.277Z" transform="translate(-477.446 -518.468)" fill="#18304b"/>
      <path id="Path_33658" data-name="Path 33658" d="M574.961,545.885a1.935,1.935,0,0,1-1.913,1.958,2.023,2.023,0,0,1-2.05-1.958V534.135a4.083,4.083,0,0,0-4.19-4.008,4.209,4.209,0,0,0-4.236,4.144v11.614a1.934,1.934,0,0,1-1.913,1.958,2.012,2.012,0,0,1-2-1.958V534.135a4.083,4.083,0,0,0-4.19-4.008,4.209,4.209,0,0,0-4.236,4.144v11.614a1.934,1.934,0,0,1-1.913,1.958,1.983,1.983,0,0,1-2-1.958V534.317a8.088,8.088,0,0,1,8.107-7.924,6.7,6.7,0,0,1,6.148,3.78,7.053,7.053,0,0,1,6.285-3.78,8.07,8.07,0,0,1,8.107,7.833Z" transform="translate(-510.38 -518.468)" fill="#18304b"/>
      <path id="Path_33659" data-name="Path 33659" d="M642.387,537.277a10.961,10.961,0,0,1-17.99,8.289v7.97a1.966,1.966,0,0,1-1.959,2.05,1.994,1.994,0,0,1-1.959-2.05V537.277a10.954,10.954,0,0,1,21.907,0Zm-3.917,0a7.128,7.128,0,1,0-7.241,7.1A7.07,7.07,0,0,0,638.47,537.277Z" transform="translate(-552.211 -518.468)" fill="#18304b"/>
    </g>
    <g id="Group_55189" data-name="Group 55189" transform="translate(298.311 432.016)">
      <path id="Path_33660" data-name="Path 33660" d="M466.165,603.582a.6.6,0,0,1-.2-.456.473.473,0,0,1,.456-.469,1.062,1.062,0,0,1,.56.222,1.812,1.812,0,0,0,1.42.521c.586,0,1-.312,1-.755,0-.482-.456-.7-1.485-1.016-.872-.274-1.823-.729-1.823-1.8,0-1.042,1.029-1.615,2.149-1.615a2.532,2.532,0,0,1,1.915.743.648.648,0,0,1,.221.482.49.49,0,0,1-.443.508.905.905,0,0,1-.521-.182,1.788,1.788,0,0,0-1.3-.5c-.391,0-.885.13-.885.612s.508.664,1.211.9c1.277.4,2.1.859,2.1,1.862a1.971,1.971,0,0,1-2.189,1.811A2.707,2.707,0,0,1,466.165,603.582Z" transform="translate(-465.97 -595.949)" fill="#00b5f0"/>
      <path id="Path_33661" data-name="Path 33661" d="M483.88,601.12c0,.4-.157.69-.495.69h-4.26a1.966,1.966,0,0,0,1.915,1.55,1.934,1.934,0,0,0,1.368-.508.56.56,0,0,1,.834-.013.609.609,0,0,1-.091.782,2.892,2.892,0,0,1-2.149.82,3.114,3.114,0,0,1,.026-6.226A2.846,2.846,0,0,1,483.88,601.12Zm-1-.339a1.741,1.741,0,0,0-1.811-1.5,2,2,0,0,0-1.928,1.5Z" transform="translate(-472.728 -595.949)" fill="#00b5f0"/>
      <path id="Path_33662" data-name="Path 33662" d="M493.4,599.23v-5.64a.56.56,0,1,1,1.121,0V599c0,.886.469,1.355,1.159,1.368a.5.5,0,0,1,.482.56c0,.3-.221.535-.7.535A1.943,1.943,0,0,1,493.4,599.23Z" transform="translate(-481.442 -593.017)" fill="#00b5f0"/>
      <path id="Path_33663" data-name="Path 33663" d="M501.053,599.23v-5.64a.56.56,0,1,1,1.12,0V599c0,.886.469,1.355,1.159,1.368a.5.5,0,0,1,.482.56c0,.3-.221.535-.7.535A1.943,1.943,0,0,1,501.053,599.23Z" transform="translate(-485.757 -593.017)" fill="#00b5f0"/>
      <path id="Path_33664" data-name="Path 33664" d="M522.2,598.924v2.605a2.929,2.929,0,0,1-2.332,2.944v1.6a.576.576,0,0,1-.56.573.57.57,0,0,1-.573-.573v-1.6a2.941,2.941,0,0,1-2.318-2.944v-2.605a.567.567,0,0,1,.573-.56.554.554,0,0,1,.547.56v2.657a1.774,1.774,0,0,0,1.784,1.863,1.743,1.743,0,0,0,1.746-1.889v-2.632a.57.57,0,0,1,.586-.56A.545.545,0,0,1,522.2,598.924Z" transform="translate(-494.421 -596.033)" fill="#00b5f0"/>
      <path id="Path_33665" data-name="Path 33665" d="M531.744,601.328a3.166,3.166,0,1,1,3.178,3.113A3.128,3.128,0,0,1,531.744,601.328Zm5.21,0a2.038,2.038,0,1,0-2.032,2.033A2,2,0,0,0,536.954,601.328Z" transform="translate(-503.067 -595.949)" fill="#00b5f0"/>
      <path id="Path_33666" data-name="Path 33666" d="M554.113,598.924v2.605a2.929,2.929,0,0,1-2.332,2.944v1.6a.576.576,0,0,1-.56.573.57.57,0,0,1-.573-.573v-1.6a2.941,2.941,0,0,1-2.318-2.944v-2.605a.567.567,0,0,1,.573-.56.554.554,0,0,1,.547.56v2.657a1.774,1.774,0,0,0,1.784,1.863,1.743,1.743,0,0,0,1.746-1.889v-2.632a.57.57,0,0,1,.586-.56A.546.546,0,0,1,554.113,598.924Z" transform="translate(-512.422 -596.033)" fill="#00b5f0"/>
      <path id="Path_33667" data-name="Path 33667" d="M567.318,599.484a1.981,1.981,0,0,0-2.149,2.163v2.227a.553.553,0,0,1-.547.56.567.567,0,0,1-.573-.56v-2.306a2.917,2.917,0,0,1,3.218-3.2c.456,0,.625.274.625.547A.553.553,0,0,1,567.318,599.484Z" transform="translate(-521.287 -596.033)" fill="#00b5f0"/>
      <path id="Path_33668" data-name="Path 33668" d="M587.809,593.6v4.781a3.139,3.139,0,0,1-6.279,0,3.113,3.113,0,0,1,3.126-3.1,3.206,3.206,0,0,1,2.019.716v-2.4a.562.562,0,0,1,.56-.586A.581.581,0,0,1,587.809,593.6Zm-1.068,4.781a2.038,2.038,0,1,0-2.019,2.045A2.015,2.015,0,0,0,586.74,598.384Z" transform="translate(-531.147 -593.017)" fill="#00b5f0"/>
      <path id="Path_33669" data-name="Path 33669" d="M603.893,601.12c0,.4-.157.69-.5.69h-4.259a1.966,1.966,0,0,0,1.915,1.55,1.935,1.935,0,0,0,1.368-.508.56.56,0,0,1,.834-.013.61.61,0,0,1-.091.782,2.894,2.894,0,0,1-2.149.82,3.114,3.114,0,0,1,.026-6.226A2.847,2.847,0,0,1,603.893,601.12Zm-1-.339a1.74,1.74,0,0,0-1.811-1.5,2,2,0,0,0-1.927,1.5Z" transform="translate(-540.417 -595.949)" fill="#00b5f0"/>
      <path id="Path_33670" data-name="Path 33670" d="M613.044,603.582a.6.6,0,0,1-.2-.456.473.473,0,0,1,.456-.469,1.066,1.066,0,0,1,.56.222,1.81,1.81,0,0,0,1.42.521c.586,0,1-.312,1-.755,0-.482-.456-.7-1.485-1.016-.873-.274-1.824-.729-1.824-1.8,0-1.042,1.029-1.615,2.149-1.615a2.531,2.531,0,0,1,1.915.743.648.648,0,0,1,.222.482.49.49,0,0,1-.443.508.905.905,0,0,1-.521-.182,1.788,1.788,0,0,0-1.3-.5c-.391,0-.886.13-.886.612s.508.664,1.212.9c1.277.4,2.1.859,2.1,1.862a1.971,1.971,0,0,1-2.189,1.811A2.708,2.708,0,0,1,613.044,603.582Z" transform="translate(-548.811 -595.949)" fill="#00b5f0"/>
      <path id="Path_33671" data-name="Path 33671" d="M625.041,594.342a.638.638,0,0,1,1.277,0,.638.638,0,1,1-1.277,0Zm.079,6.891V596.3a.567.567,0,0,1,.573-.56.545.545,0,0,1,.547.56v4.937a.567.567,0,0,1-.56.573A.575.575,0,0,1,625.119,601.233Z" transform="translate(-555.688 -593.404)" fill="#00b5f0"/>
      <path id="Path_33672" data-name="Path 33672" d="M635.4,603.165a2.192,2.192,0,0,1,.586,1.511,2.084,2.084,0,0,1-2.175,2.162c-.457,0-.991-.13-1.407-.13a2.054,2.054,0,0,0-.95.209.588.588,0,0,1-.456-1.081,3.018,3.018,0,0,1,1.315-.3c.456,0,.951.13,1.329.13a1.175,1.175,0,0,0,1.172-1.121.975.975,0,0,0-.208-.651,3.145,3.145,0,0,1-1.667.469,3.08,3.08,0,0,1-3.113-3.074,3.107,3.107,0,0,1,6.213,0A2.994,2.994,0,0,1,635.4,603.165Zm-.495-1.875a1.967,1.967,0,1,0-1.993,2.006A1.934,1.934,0,0,0,634.9,601.289Z" transform="translate(-558.384 -595.949)" fill="#00b5f0"/>
      <path id="Path_33673" data-name="Path 33673" d="M651.922,601.2v2.631a.545.545,0,0,1-.548.56.578.578,0,0,1-.586-.56v-2.683a1.74,1.74,0,0,0-1.733-1.863,1.8,1.8,0,0,0-1.8,1.863v2.683a.545.545,0,0,1-.547.56.567.567,0,0,1-.573-.56V601.2a2.893,2.893,0,1,1,5.783,0Z" transform="translate(-567.587 -595.949)" fill="#00b5f0"/>
      <path id="Path_33674" data-name="Path 33674" d="M661.485,603.582a.6.6,0,0,1-.2-.456.473.473,0,0,1,.456-.469,1.063,1.063,0,0,1,.56.222,1.811,1.811,0,0,0,1.42.521c.586,0,1-.312,1-.755,0-.482-.456-.7-1.485-1.016-.872-.274-1.824-.729-1.824-1.8,0-1.042,1.029-1.615,2.149-1.615a2.532,2.532,0,0,1,1.915.743.648.648,0,0,1,.221.482.489.489,0,0,1-.443.508.906.906,0,0,1-.521-.182,1.788,1.788,0,0,0-1.3-.5c-.391,0-.886.13-.886.612s.509.664,1.212.9c1.277.4,2.1.859,2.1,1.862a1.971,1.971,0,0,1-2.188,1.811A2.707,2.707,0,0,1,661.485,603.582Z" transform="translate(-576.132 -595.949)" fill="#00b5f0"/>
    </g>
    <g id="Group_55190" data-name="Group 55190" transform="translate(306.058 283.927)">
      <path id="Path_33675" data-name="Path 33675" d="M532.268,348.883a10.56,10.56,0,0,1,4.308,2.6,10.757,10.757,0,1,1-15.213,0,10.559,10.559,0,0,1,4.308-2.6V328.771a30.753,30.753,0,0,0-6.6,1.45A30.329,30.329,0,0,0,500.1,349.2H493.2a36.928,36.928,0,0,1,25.876-25.876,37.588,37.588,0,0,1,13.191-1.18v13.268a24.049,24.049,0,0,1,6.6,1.888,23.732,23.732,0,0,1,11.9,11.9h-7.542a17.126,17.126,0,0,0-4.359-4.359,17.262,17.262,0,0,0-6.6-2.749Zm-.355,13.154a4.161,4.161,0,1,0-5.885,0A4.262,4.262,0,0,0,531.913,362.038Zm-9.494,50.713a3.307,3.307,0,0,0,3.3,3.3h6.508a3.308,3.308,0,0,0,3.3-3.3h7.418a3.308,3.308,0,0,0,3.3-3.3v-3.3H511.7v3.3a3.308,3.308,0,0,0,3.3,3.3Zm9.849-23.085-3.3,3.3-3.3-3.3-6.6-6.6-7.041-7.04a23.666,23.666,0,0,1-4.86-7.041h7.541a17.138,17.138,0,0,0,1.983,2.377l2.377,2.377,6.6,6.6,3.3,3.3,3.3-3.3,6.6-6.6,2.377-2.377a17.15,17.15,0,0,0,4.731-8.972,17.7,17.7,0,0,0,0-6.6h13.323a30.763,30.763,0,0,0-1.45-6.6,30.33,30.33,0,0,0-18.981-18.981v-6.895A36.928,36.928,0,0,1,564.739,349.2a37.553,37.553,0,0,1,1.182,13.191H552.651a24.033,24.033,0,0,1-1.887,6.6,23.655,23.655,0,0,1-4.86,7.041l-7.041,7.04Z" transform="translate(-493.201 -322)" fill="#00b5f0" fill-rule="evenodd"/>
      <path id="Path_33676" data-name="Path 33676" d="M583.69,424.1,591.3,416.5a30.245,30.245,0,0,0,7.277-11.7h6.894a36.822,36.822,0,0,1-9.507,16.368l-7.607,7.606Z" transform="translate(-532.58 -358.03)" fill="#18304b" fill-rule="evenodd"/>
      <path id="Path_33677" data-name="Path 33677" d="M511.682,404.353l-7.606-7.606a36.815,36.815,0,0,1-9.507-16.368,37.554,37.554,0,0,1-1.182-13.191h13.269a24.04,24.04,0,0,1,1.887-6.6,23.739,23.739,0,0,1,11.9-11.9v7.542a17.133,17.133,0,0,0-4.359,4.359,17.269,17.269,0,0,0-2.749,6.6,17.7,17.7,0,0,0,0,6.6H500.014a30.768,30.768,0,0,0,1.45,6.6,30.242,30.242,0,0,0,7.277,11.7l7.606,7.607Z" transform="translate(-493.219 -333.616)" fill="#18304b" fill-rule="evenodd"/>
      <rect id="Rectangle_5737" data-name="Rectangle 5737" width="41.598" height="6.595" transform="translate(16.319 74.036)" fill="#18304b"/>
    </g>
  </g>
</svg>
