<svg xmlns="http://www.w3.org/2000/svg" width="333.18" height="78" viewBox="0 0 333.18 78">
  <g id="Group_52259" data-name="Group 52259" transform="translate(-0.82 -203)">
    <rect id="Rectangle_11365" data-name="Rectangle 11365" width="287" height="5" transform="translate(35 248)" fill="#e4e4e4"/>
    <rect id="Rectangle_11366" data-name="Rectangle 11366" width="125" height="5" transform="translate(119 248)" fill="#00b5f0"/>
    <path id="Path_32726" data-name="Path 32726" d="M325.926,317.924a2.449,2.449,0,0,1,.762-1.852,2.716,2.716,0,0,1,1.945-.726,2.753,2.753,0,0,1,1.9.685,2.156,2.156,0,0,1,.774,1.688,2.544,2.544,0,0,1-.375,1.3,11.32,11.32,0,0,1-1.413,1.751l-2.033,2.186v.094h3.961V324h-5.472v-.727l2.923-3.193a8.945,8.945,0,0,0,1.084-1.348,1.9,1.9,0,0,0,.27-.972,1.362,1.362,0,0,0-.481-1.061,1.671,1.671,0,0,0-1.171-.433,1.569,1.569,0,0,0-1.659,1.658v.006h-1.019Zm10.148,6.275a2.524,2.524,0,0,1-2.215-1.16,7.152,7.152,0,0,1,.006-6.527,2.522,2.522,0,0,1,2.209-1.166,2.5,2.5,0,0,1,2.2,1.172,7.152,7.152,0,0,1,.006,6.527A2.506,2.506,0,0,1,336.074,324.2Zm-1.441-1.828a1.574,1.574,0,0,0,1.441.908,1.551,1.551,0,0,0,1.43-.9,5.519,5.519,0,0,0,.5-2.607,5.412,5.412,0,0,0-.5-2.59,1.555,1.555,0,0,0-1.424-.909,1.578,1.578,0,0,0-1.435.915,5.4,5.4,0,0,0-.5,2.584A5.5,5.5,0,0,0,334.633,322.371Zm9,1.828a2.522,2.522,0,0,1-2.215-1.16,7.152,7.152,0,0,1,.006-6.527,2.66,2.66,0,0,1,4.406.006,7.152,7.152,0,0,1,.006,6.527A2.507,2.507,0,0,1,343.633,324.2Zm-1.442-1.828a1.575,1.575,0,0,0,1.442.908,1.55,1.55,0,0,0,1.429-.9,5.506,5.506,0,0,0,.5-2.607,5.412,5.412,0,0,0-.5-2.59,1.555,1.555,0,0,0-1.424-.909,1.579,1.579,0,0,0-1.436.915,5.4,5.4,0,0,0-.5,2.584A5.5,5.5,0,0,0,342.191,322.371Zm9,1.828a2.521,2.521,0,0,1-2.214-1.16,7.148,7.148,0,0,1,.005-6.527,2.661,2.661,0,0,1,4.407.006,7.152,7.152,0,0,1,.006,6.527A2.507,2.507,0,0,1,351.191,324.2Zm-1.441-1.828a1.574,1.574,0,0,0,1.441.908,1.551,1.551,0,0,0,1.43-.9,5.519,5.519,0,0,0,.5-2.607,5.412,5.412,0,0,0-.5-2.59,1.554,1.554,0,0,0-1.424-.909,1.578,1.578,0,0,0-1.435.915,5.4,5.4,0,0,0-.5,2.584A5.5,5.5,0,0,0,349.75,322.371Z" transform="translate(-325.106 -69)" fill="#18304b"/>
    <path id="Path_32727" data-name="Path 32727" d="M23.994,323.2a2.523,2.523,0,0,0,2.215-1.16,7.151,7.151,0,0,0-.006-6.527,2.66,2.66,0,0,0-4.406.006,7.152,7.152,0,0,0-.006,6.527A2.506,2.506,0,0,0,23.994,323.2Zm1.441-1.828a1.574,1.574,0,0,1-1.441.908,1.551,1.551,0,0,1-1.43-.9,5.518,5.518,0,0,1-.5-2.607,5.413,5.413,0,0,1,.5-2.59,1.555,1.555,0,0,1,1.424-.909,1.578,1.578,0,0,1,1.436.915,5.4,5.4,0,0,1,.5,2.584A5.5,5.5,0,0,1,25.435,321.371Z" transform="translate(307 -69)" fill="#18304b"/>
    <g id="Group_52256" data-name="Group 52256" transform="translate(239 239)">
      <path id="Path_32728" data-name="Path 32728" d="M104,332a12,12,0,1,1,12-12A12,12,0,0,1,104,332Z" transform="translate(-92 -308)" fill="#fff" fill-rule="evenodd"/>
    </g>
    <path id="Path_32729" data-name="Path 32729" d="M104,328a8,8,0,1,1,8-8A8,8,0,0,1,104,328Z" transform="translate(147 -69)" fill="#00b5f0"/>
    <g id="Group_52257" data-name="Group 52257" transform="translate(99 239)">
      <path id="Path_32730" data-name="Path 32730" d="M244,332a12,12,0,1,1,12-12A12,12,0,0,1,244,332Z" transform="translate(-232 -308)" fill="#fff" fill-rule="evenodd"/>
    </g>
    <path id="Path_32731" data-name="Path 32731" d="M244,328a8,8,0,1,1,8-8A8,8,0,0,1,244,328Z" transform="translate(-133 -69)" fill="#00b5f0"/>
    <text id="Text" transform="translate(334 219)" fill="#18304b" font-size="15" font-family="SegoeUI, Segoe UI"><tspan x="-86.777" y="0">متوسط السعر</tspan></text>
    <g id="Group_52260" data-name="Group 52260">
      <text id="_89.50" data-name="89.50" transform="translate(249 278)" fill="#18304b" font-size="12" font-family="SegoeUI, Segoe UI"><tspan x="0" y="0">89.50</tspan></text>
      <text id="ريال" transform="translate(229 276)" fill="#18304b" font-size="12" font-family="SegoeUI, Segoe UI"><tspan x="0" y="0">ريال</tspan></text>
    </g>
    <g id="Group_52261" data-name="Group 52261" transform="translate(-145)">
      <text id="_89.50-2" data-name="89.50" transform="translate(249 278)" fill="#18304b" font-size="12" font-family="SegoeUI, Segoe UI"><tspan x="0" y="0">89.50</tspan></text>
      <text id="ريال-2" data-name="ريال" transform="translate(229 276)" fill="#18304b" font-size="12" font-family="SegoeUI, Segoe UI"><tspan x="0" y="0">ريال</tspan></text>
    </g>
  </g>
</svg>
