<svg id="Progress_Delivery" data-name="Progress Delivery" xmlns="http://www.w3.org/2000/svg" width="256.871" height="15" viewBox="0 0 256.871 15">
  <line id="Line_31" data-name="Line 31" x1="245.242" transform="translate(7.129 8)" fill="none" stroke="#a4b0be" stroke-width="2" stroke-dasharray="4"/>
  <g id="order_check_ic" transform="translate(15) rotate(90)">
    <circle id="Ellipse_889" data-name="Ellipse 889" cx="7.5" cy="7.5" r="7.5" transform="translate(15) rotate(90)" fill="#00b5f0" opacity="0.45"/>
    <circle id="Ellipse_890" data-name="Ellipse 890" cx="4.5" cy="4.5" r="4.5" transform="translate(3 3)" fill="#fff"/>
    <path id="tick" d="M5.5,11A5.5,5.5,0,1,0,0,5.5,5.5,5.5,0,0,0,5.5,11ZM6.509,2.675,8.931,5.1,8.124,5.9,6.509,4.289,2.876,7.922l-.807-.807Z" transform="translate(12.999 2) rotate(90)" fill="#00b5f0"/>
  </g>
  <g id="order_check_ic-2" data-name="order_check_ic" transform="translate(137.566) rotate(90)">
    <circle id="Ellipse_889-2" data-name="Ellipse 889" cx="7.5" cy="7.5" r="7.5" transform="translate(15) rotate(90)" fill="#a4b0be" opacity="0.45"/>
    <circle id="Ellipse_890-2" data-name="Ellipse 890" cx="4.5" cy="4.5" r="4.5" transform="translate(3 3)" fill="#fff"/>
    <path id="tick-2" data-name="tick" d="M5.5,11A5.5,5.5,0,1,0,0,5.5,5.5,5.5,0,0,0,5.5,11ZM6.509,2.675,8.931,5.1,8.124,5.9,6.509,4.289,2.876,7.922l-.807-.807Z" transform="translate(12.999 2) rotate(90)" fill="#a4b0be"/>
  </g>
  <g id="order_check_ic-3" data-name="order_check_ic" transform="translate(256.871) rotate(90)">
    <circle id="Ellipse_889-3" data-name="Ellipse 889" cx="7.5" cy="7.5" r="7.5" transform="translate(15) rotate(90)" fill="#a4b0be" opacity="0.45"/>
    <circle id="Ellipse_890-3" data-name="Ellipse 890" cx="4.5" cy="4.5" r="4.5" transform="translate(3 3)" fill="#fff"/>
    <path id="tick-3" data-name="tick" d="M5.5,11A5.5,5.5,0,1,0,0,5.5,5.5,5.5,0,0,0,5.5,11ZM6.509,2.675,8.931,5.1,8.124,5.9,6.509,4.289,2.876,7.922l-.807-.807Z" transform="translate(12.999 2) rotate(90)" fill="#a4b0be"/>
  </g>
</svg>
