<svg xmlns="http://www.w3.org/2000/svg" xmlns:xlink="http://www.w3.org/1999/xlink" width="17.873" height="17.873" viewBox="0 0 17.873 17.873">
  <defs>
    <clipPath id="clip-path">
      <path id="Clip_2346" data-name="Clip 2346" d="M0,8.937a8.937,8.937,0,0,0,8.937,8.937h0a8.937,8.937,0,0,0,8.937-8.937h0A8.937,8.937,0,0,0,8.937,0h0A8.937,8.937,0,0,0,0,8.937Z" fill="none"/>
    </clipPath>
  </defs>
  <g id="Group_2354" data-name="Group 2354" clip-path="url(#clip-path)">
    <path id="Fill_2345" data-name="Fill 2345" d="M0,18.566H30.245V0H0Z" transform="translate(-6.186 -0.346)" fill="#006b35"/>
    <path id="Fill_2347" data-name="Fill 2347" d="M1.106,1.193c-.006.217.02.472.132.369s0-.62,0-.62C1.192.688,1.154.577,1.129.353S1.17-.019,1.264,0c.2.046.227.422.246.654a2.039,2.039,0,0,0,.11.672c.08.133.182.031.084-.132A1.073,1.073,0,0,1,1.6.473c.068-.209.241-.035.241-.035a1,1,0,0,1,.143.774c.326.3.371.264.447.264s.044-.272-.023-.335-.3-.452-.234-.661.3-.2.446.028c.182.258.061.318-.046.221a1.735,1.735,0,0,1,.182.859c-.083.237-.563.457-.756.279s-.311-.076-.311.042A5.5,5.5,0,0,1,1.74,2.9c-.083.543-.295.459-.295.459s-.038-.946-.079-1.111S1.219,2.109,1,2.04s-.159-.6-.159-.6S.89,1.081.8,1c-.136,0-.128.243-.128.4s0,.571-.234.571-.385-.194-.423-.48a4.827,4.827,0,0,1,0-.774s.1-.18.159.147.12.682.218.682.137-.438.2-.619.171-.433.37-.4.148.495.145.665" transform="translate(1.415 4.792)" fill="#fff"/>
    <path id="Fill_2348" data-name="Fill 2348" d="M13.859,5c-.068,0-.111-.015-.129-.045a.09.09,0,0,1,0-.08.548.548,0,0,0,.052-.057.375.375,0,0,1,.082-.081,1.46,1.46,0,0,1,.215-.1,1.711,1.711,0,0,0,.195-.091A1.131,1.131,0,0,0,14.731,4a3.945,3.945,0,0,0-.014-.485c-.008-.127-.015-.247-.015-.323s-.046-.573-.076-.835c-.007-.06-.013-.119-.02-.177-.027-.243-.053-.472-.1-.77-.006-.037-.014-.084-.023-.136a2.774,2.774,0,0,1-.067-.965l.105-.195a.329.329,0,0,1,.134.135c.011.016.022.032.032.046.039.051.077.1.114.155l.068.1a.7.7,0,0,1,.054.1A.466.466,0,0,0,15,.771a.178.178,0,0,1-.014.069l-.075.007-.077.007V.869h-.016A1.765,1.765,0,0,0,14.9,1.3a1.666,1.666,0,0,1,.041.256,1.662,1.662,0,0,0,.036.231c0,.082.013.154.022.223s.017.129.021.205a7.326,7.326,0,0,1,.033.939c0,.075,0,.149,0,.221q0,.063,0,.127a1.968,1.968,0,0,1-.167,1.057,1.045,1.045,0,0,1-.559.376,1.411,1.411,0,0,1-.333.055A.774.774,0,0,1,13.859,5ZM1.643,4.928H1.584A.787.787,0,0,1,.773,4.24,1.155,1.155,0,0,1,.866,3.6c.011-.024.029-.06.064-.065h0c.016,0,.061.012.065.025.017.075.027.158.037.245.027.227.055.462.205.561a.878.878,0,0,0,.5.14A1.5,1.5,0,0,0,2.8,4.044a1.626,1.626,0,0,0,.258-.487c.013-.066.029-.132.046-.2s.033-.13.045-.194a.331.331,0,0,0-.031-.181c-.111.014-.148.2-.181.356a1.021,1.021,0,0,1-.045.174,1.308,1.308,0,0,1-.756.725,1.01,1.01,0,0,1-.318.055.7.7,0,0,1-.626-.368A.926.926,0,0,1,1.226,3H1.3a2,2,0,0,1,.041.256c.026.213.055.453.2.538a.381.381,0,0,0,.191.042,1.009,1.009,0,0,0,.308-.057.957.957,0,0,0,.71-.724.771.771,0,0,0-.115.038l-.047.029a.561.561,0,0,1-.079.046.421.421,0,0,1-.17.034.518.518,0,0,1-.1-.01.271.271,0,0,1-.222-.313.672.672,0,0,1,.136-.472.5.5,0,0,1,.328-.166.3.3,0,0,1,.055.005.693.693,0,0,1,.395.293.166.166,0,0,0,.132-.062.355.355,0,0,0,.03-.266L3.065,2.08a4.736,4.736,0,0,1-.112-.533c-.008-.059-.015-.119-.023-.179a4.459,4.459,0,0,0-.1-.6A1.842,1.842,0,0,1,2.771.421C2.76.244,2.993.2,3,.2l.026,0a.182.182,0,0,1,.128.06,1,1,0,0,1,.2.427l.007.027a.936.936,0,0,0,.032.1L3.4.827c.017.04.049.114.03.157a.053.053,0,0,1-.034.029.079.079,0,0,1-.024,0A.22.22,0,0,1,3.32,1.01.244.244,0,0,0,3.273,1a.069.069,0,0,0-.037.01c-.051.032-.029.112-.015.16l0,.006c.021.077.041.152.056.229.037.193.057.391.076.582.01.1.02.2.032.3l.009.006L3.4,2.3a.394.394,0,0,0,.063-.019.3.3,0,0,1,.1-.023.1.1,0,0,1,.053.014c.049.023.054.073.059.126a.19.19,0,0,0,.032.11.144.144,0,0,0,.087.025A.208.208,0,0,0,3.917,2.5a.259.259,0,0,0,.074-.11A.384.384,0,0,1,4.038,2.3l.019-.012.087-.057h.009a.134.134,0,0,1,.067.013c.062.021.087.081.111.14.008.02.016.038.025.055.115,0,.119-.046.123-.1a.217.217,0,0,1,.028-.1c.02-.047.069-.061.122-.076a.318.318,0,0,0,.089-.035h.015v0a1.132,1.132,0,0,1-.163.695.271.271,0,0,1-.2.081.44.44,0,0,1-.107-.014.4.4,0,0,1-.092-.04A.432.432,0,0,0,4.069,2.8a.606.606,0,0,1-.412.2.242.242,0,0,1-.209-.1.22.22,0,0,0-.049.01l-.012,0c0,.076.012.155.02.232a1.817,1.817,0,0,1,.01.479,1.643,1.643,0,0,1-1.33,1.24A1.711,1.711,0,0,1,1.643,4.928Zm.785-2.31H2.415a.075.075,0,0,0-.023.008.173.173,0,0,0-.087.108.08.08,0,0,0,.018.069.117.117,0,0,0,.076.032.4.4,0,0,0,.055,0c.055,0,.088-.018.1-.055a.13.13,0,0,0-.02-.13A.175.175,0,0,0,2.428,2.617Zm9.109,2.309a.523.523,0,0,1-.217-.064.873.873,0,0,1-.259-.221.9.9,0,0,1,.009-1.035l0,0a.242.242,0,0,1,0,.081,1.112,1.112,0,0,0,.145.695l.02.023c.04.046.094.11.166.11a.142.142,0,0,0,.072-.021c.1-.033.146-.161.187-.274.013-.037.026-.072.04-.1a2.442,2.442,0,0,1,.273-.474c.1-.119.166-.125.179-.125h.028c.111,0,.171.09.262.227a1.122,1.122,0,0,0,.212.234.256.256,0,0,0,.062.008.169.169,0,0,0,.089-.022.817.817,0,0,0,.171-.641c-.026-.432-.075-1.169-.08-1.252,0-.067,0-.129-.007-.191s0-.132-.007-.2a.572.572,0,0,0-.13-.164c-.026-.026-.05-.05-.068-.073l-.123-.157,0,0c-.062-.08-.126-.161-.192-.244a1.578,1.578,0,0,0-.113-.122A1.117,1.117,0,0,1,12.1.729.957.957,0,0,1,12.1.1c.079,0,.3.221.435.353.035.035.063.063.08.078.047.045.069.08.062.1s-.016.015-.034.015a.158.158,0,0,0-.088.026V.7a.631.631,0,0,1,.074.081A.617.617,0,0,0,12.7.869h0a.263.263,0,0,0,0-.087V.773c-.008-.089-.02-.179-.032-.266-.005-.038-.01-.075-.014-.112a.313.313,0,0,1,.02-.168c.017-.037.073-.114.137-.114l.016,0c.079.016.126.123.164.209A.8.8,0,0,0,13.037.4c.094.153.173.28.257.41,0,.009,0,.018,0,.027a.1.1,0,0,1-.029.085h-.01A.121.121,0,0,1,13.176.9a.333.333,0,0,0-.049-.028.619.619,0,0,0,.015.279c.005.093.01.193.014.306.146.194.429.556.44.557a2.54,2.54,0,0,0-.057-.344l-.017-.081-.046-.23V1.35c-.032-.158-.065-.321-.1-.483a2.52,2.52,0,0,1-.05-.372l0-.031A.336.336,0,0,1,13.387.2a.263.263,0,0,1,.088-.07.1.1,0,0,1,.049-.013c.126,0,.259.248.4.736l.008.028c0,.044,0,.075-.018.092s-.036.02-.077.02h-.025v.015h-.016a2,2,0,0,0,.091.557,2.273,2.273,0,0,1,.057.323,2.333,2.333,0,0,0,.049.29l.059.483.251.314c.088.119.2.277.31.442a.95.95,0,0,1,.015.641l0,.014a.015.015,0,0,1,0,.008l-.005.006a1.836,1.836,0,0,0-.129-.209l-.038-.056c-.111-.169-.33-.523-.331-.53a.792.792,0,0,0,0,.1,3.69,3.69,0,0,1-.027.4.921.921,0,0,1-.257.332l-.06.058h-.014c0-.217-.008-.4-.017-.622,0-.121-.01-.249-.014-.395q-.009-.157-.019-.316l-.01-.158c-.114-.15-.228-.3-.333-.446h-.031q.008.578.015,1.156c0,.049,0,.1,0,.149A1.392,1.392,0,0,1,13.309,4a.709.709,0,0,1-.15.252.479.479,0,0,1-.359.169.592.592,0,0,1-.247-.06,2.282,2.282,0,0,1-.3-.223A.231.231,0,0,0,12.1,4.07a.124.124,0,0,0-.064.016.428.428,0,0,0-.14.314,1.128,1.128,0,0,1-.042.187.569.569,0,0,1-.2.3A.2.2,0,0,1,11.537,4.926ZM4.848,4.9h0a.713.713,0,0,1-.4-.121.574.574,0,0,1-.17-.23c-.013-.026-.027-.052-.041-.078-.223.068-.44.151-.65.231l-.015.006-.425.119-.074.021H3.048a.209.209,0,0,1-.1-.014.019.019,0,0,1,0-.016c.006-.06.213-.206.276-.249.137-.09.289-.172.436-.251.091-.049.185-.1.276-.152l.037-.022c.1-.057.2-.116.3-.173a.168.168,0,0,0,.073-.134.518.518,0,0,1,.013-.058c.008-.023.015-.047.023-.071S4.4,3.64,4.412,3.6s.1-.2.171-.2a.662.662,0,0,1-.02.1c-.021.086-.046.183.007.247a.759.759,0,0,0,.174-.12l.006,0c.039-.033.084-.067.132-.1a1.009,1.009,0,0,0,.367-.385.334.334,0,0,0,.011-.218.644.644,0,0,0-.2-.27.408.408,0,0,1-.145-.3.317.317,0,0,1,.066-.232.206.206,0,0,1,.158-.072.367.367,0,0,1,.219.089.607.607,0,0,1,.211.406.176.176,0,0,1-.105-.028H5.384a1.307,1.307,0,0,0,.071.165,1.291,1.291,0,0,1,.1.238.8.8,0,0,1-.135.642,2.067,2.067,0,0,1-.8.683.222.222,0,0,0,.068.176.582.582,0,0,1,.038.047,1.9,1.9,0,0,0,.194.013A.506.506,0,0,0,5.1,4.449a2.119,2.119,0,0,0,.863-.864,1,1,0,0,0,.014-.39c-.026-.11-.053-.22-.08-.328l-.026-.1A.594.594,0,0,0,5.8,2.611c-.013-.021-.024-.042-.035-.061a1.6,1.6,0,0,1-.092-.224.408.408,0,0,1,.015-.4.141.141,0,0,1,.1-.057c.1,0,.181.169.224.26l.01.021a3.962,3.962,0,0,1,.226.613,1.064,1.064,0,0,1,.031.2.594.594,0,0,0,.06.257c.046-.012.054-.034.067-.068l.007-.017a.314.314,0,0,1,.074-.1,1.814,1.814,0,0,1,.789-.358.812.812,0,0,1,.137-.02.66.66,0,0,0,.135-.021,1.806,1.806,0,0,0,.022-.215.682.682,0,0,1,.084-.357A.417.417,0,0,1,8,1.888a.644.644,0,0,1,.428.192.5.5,0,0,1,.016.53,1.081,1.081,0,0,1-.954.46l-.006.007-.008.006a.179.179,0,0,0,.01.045l0,.011.442.006.632.009c.039,0,.084,0,.125-.007s.083-.006.125-.006a.358.358,0,0,1,.216.054.427.427,0,0,0-.159.28.632.632,0,0,1-.082.208,2.162,2.162,0,0,1-.7.16c-.121.017-.235.032-.314.049L7.7,3.9l-.229.02s-.187.115-.2.209.163.218.294.271.227.106.18.243c-.027.076-.1.113-.209.113a.9.9,0,0,1-.126-.011A1.886,1.886,0,0,1,6.674,4.5a1.582,1.582,0,0,1-.262-.2c-.01-.009-.046-.055-.085-.1a1.608,1.608,0,0,0-.127-.15.416.416,0,0,0-.259.215c-.019.028-.037.054-.057.078A1.534,1.534,0,0,1,4.848,4.9ZM6.508,3.47H6.5a.1.1,0,0,1-.051.02.158.158,0,0,0-.04.011c-.064.305.129.444.316.578.049.035.1.069.137.1h0a.172.172,0,0,0,.088-.014.229.229,0,0,0,.012-.143.327.327,0,0,1,0-.136c.034-.1.157-.147.265-.189.041-.016.079-.031.112-.048,0-.057-.007-.087-.045-.111A4.75,4.75,0,0,0,6.508,3.47Zm1.37-1.139H7.85a.009.009,0,0,0-.008,0c-.011.019.009.086.014.094a.207.207,0,0,0,.112.075l.03,0a.176.176,0,0,0,.091-.017.01.01,0,0,0,0-.007C8.085,2.379,8.019,2.331,7.878,2.331ZM.312,4.868a.282.282,0,0,1-.293-.2,1.224,1.224,0,0,1,.224-.943s.014.141.013.156c0,.048-.012.1-.02.145,0,.03-.009.059-.013.089A.486.486,0,0,0,.276,4.5.366.366,0,0,1,.47,4.385a.05.05,0,0,1,.044.023c.039.057,0,.212-.023.282-.016.043-.078.168-.144.177A.31.31,0,0,1,.312,4.868ZM8.393,4.7H8.372c-.059,0-.106,0-.121-.061a.237.237,0,0,1,0-.074.288.288,0,0,0,0-.058v0c0-.025-.006-.055-.03-.067a.049.049,0,0,0-.021,0,.179.179,0,0,0-.05.011.187.187,0,0,1-.052.011.051.051,0,0,1-.022,0,.06.06,0,0,1-.03-.024.111.111,0,0,0-.015-.018.017.017,0,0,1,0-.015c.009-.056.192-.188.249-.217l.011-.006.021,0a.32.32,0,0,1,.111.031h0a.324.324,0,0,1-.019.087c-.018.056-.036.114.006.163a.275.275,0,0,1,.015.041.643.643,0,0,0,.16-.046A.68.68,0,0,1,8.8,4.388a.145.145,0,0,1,.077.019h.031l0,.012a.02.02,0,0,0,0,.009l.005.007V4.44a.137.137,0,0,1-.015.078.739.739,0,0,1-.253.089.788.788,0,0,0-.263.093ZM9.1,4.434h0c0-.123.005-.253.01-.378.008-.21.017-.426,0-.624C9.11,3.278,9.1,3.145,9.1,2.957l-.03-.487-.08-.683-.161-.223c-.071-.093-.14-.189-.207-.282-.1-.139-.2-.282-.313-.417C8.28.826,8.243.787,8.2.745A.955.955,0,0,1,8,.478a.681.681,0,0,1-.03-.3c0-.016,0-.032,0-.049A.364.364,0,0,0,8.031.061a1.217,1.217,0,0,1,.7.481c0-.013,0-.029,0-.048a.557.557,0,0,1,.01-.2A.36.36,0,0,1,8.863.116l.007,0,.009,0,.014,0c.05.071.108.141.164.209A2.377,2.377,0,0,1,9.3.647,1.062,1.062,0,0,1,9.4.908c0,.006.026.058.013.08A.022.022,0,0,1,9.389,1,.187.187,0,0,1,9.306.962a.02.02,0,0,0-.01,0,.01.01,0,0,0-.007,0c-.012.013-.007.059,0,.09l0,.016a2.137,2.137,0,0,0,.047.284.8.8,0,0,1,.014.155.707.707,0,0,0,.019.173.55.55,0,0,0,.128.205l.031.037a5.151,5.151,0,0,1,.462.692c.076.128.154.26.237.386a1.062,1.062,0,0,1,.122.315l0,.011c.037.14.1.373-.018.49a.044.044,0,0,1-.031.015c-.037,0-.064-.068-.085-.118-.006-.016-.012-.029-.016-.038-.021-.04-.041-.081-.059-.121s-.031-.066-.048-.1a4.324,4.324,0,0,0-.265-.43,4.677,4.677,0,0,1-.248-.4c-.02-.038-.04-.072-.06-.1a.358.358,0,0,0-.027-.032A.188.188,0,0,1,9.45,2.43h0a.013.013,0,0,0-.01,0c-.023.025-.011.146-.005.211,0,.015,0,.027,0,.034l.006.095c0,.065.008.131.011.2.009.2.017.4.017.588,0,.043,0,.089,0,.137a1.085,1.085,0,0,1-.021.364c-.117.359-.337.375-.347.376Zm2.173-.191a.016.016,0,0,1-.011,0,10.744,10.744,0,0,0-.257-2.354c-.022-.1-.04-.2-.057-.3a4.027,4.027,0,0,0-.095-.44c-.08-.275-.085-.893.12-1.017a3.432,3.432,0,0,0,.258.46c.017.026.037.05.058.077a.48.48,0,0,1,.137.285h-.028a.366.366,0,0,0-.168.028,2.354,2.354,0,0,0,.09.543,2.412,2.412,0,0,1,.056.364,2.351,2.351,0,0,0,.05.333q.035.285.069.571t.069.571A1.594,1.594,0,0,1,11.487,4C11.388,4.192,11.309,4.243,11.277,4.243ZM4.085,3.763a.018.018,0,0,1-.017-.011c.006-.239,0-.38-.181-.488a.115.115,0,0,1,0-.091.1.1,0,0,1,.076-.045h.014A.287.287,0,0,1,4.19,3.3a.408.408,0,0,1-.061.443A.075.075,0,0,1,4.085,3.763Zm8.573-.15h0A.19.19,0,0,1,12.6,3.6h0c0-.027,0-.052,0-.076A.842.842,0,0,0,12.476,3c-.034-.137-.006-.164.056-.223a.1.1,0,0,1,.047-.012.143.143,0,0,1,.1.053c.054.06.139.222.1.628a.259.259,0,0,1-.12.166ZM.147,3.193v0a1.06,1.06,0,0,1,.13-.224l.028-.039a1.308,1.308,0,0,1,.462-.354,1.029,1.029,0,0,1,.275-.107.535.535,0,0,1,.106-.012.316.316,0,0,1,.168.043.158.158,0,0,1,.058.072.278.278,0,0,0,.032.053.007.007,0,0,1,0,.007,1.485,1.485,0,0,1-.387.173l-.032.011c-.1.045-.207.1-.306.148C.6,3,.522,3.045.439,3.083a1.119,1.119,0,0,1-.13.047.924.924,0,0,0-.161.062Zm11.77-.151a.013.013,0,0,1-.009,0c-.026-.028-.02-.174-.02-.175,0-.073.125-.145.217-.2.026-.015.049-.028.064-.039l.05-.036a2.6,2.6,0,0,1,.32-.211l.023-.013a.7.7,0,0,0,.084-.05l.017-.015a.086.086,0,0,1,.053-.032.039.039,0,0,1,.019,0c.025.013.027.057.028.083v.007a.312.312,0,0,1-.152.273A3.831,3.831,0,0,1,11.917,3.041ZM6.956,2.446A.271.271,0,0,1,6.791,2.4a.189.189,0,0,1-.111-.129A.174.174,0,0,1,6.7,2.108l.006-.016.009-.025a.107.107,0,0,1,.093.043.089.089,0,0,1,.011.025c.006.018.013.038.032.042h.005c.025,0,.04-.031.049-.055L6.914,2.1c.006-.018.009-.029.013-.029.072.007.086.048.1.094a.359.359,0,0,0,.019.046h.031c.006-.018.012-.035.018-.052a.535.535,0,0,1,.041-.1H7.2l.011.018a.124.124,0,0,1,.018.037.3.3,0,0,1,.016.209C7.216,2.4,7.072,2.446,6.956,2.446Zm5.339-.184h0a1.2,1.2,0,0,1-.229-.109.808.808,0,0,1-.327-.312.243.243,0,0,1,0-.216.151.151,0,0,1,.13-.073h.007a.117.117,0,0,1,.1.061l.018.023a.109.109,0,0,0,.054.04c.008,0,.033,0,.053-.007H12.1l.039-.005a.254.254,0,0,1,0-.235.16.16,0,0,1,.128-.086h.015c.067,0,.125.045.171.133a.516.516,0,0,1,.048.15c.006.033,0,.054-.006.065a.043.043,0,0,1-.035.012.426.426,0,0,1-.075-.011.288.288,0,0,1-.061.042l-.031.529ZM6.351,1.944h0a.436.436,0,0,1-.313-.136.521.521,0,0,1-.145-.374.81.81,0,0,0,0-.1c0-.023,0-.047,0-.071s0-.038,0-.056a.654.654,0,0,0-.013-.142c-.107.008-.123.109-.137.2a.545.545,0,0,1-.016.079L5.7,1.4a1.062,1.062,0,0,1-.149.335.173.173,0,0,1-.143.068A.45.45,0,0,1,5.2,1.73.623.623,0,0,1,5,1.51a1.114,1.114,0,0,1-.1-.492A1.8,1.8,0,0,1,4.96.506a.178.178,0,0,1,.055.012l.006,0c.034.01.058.172.067.233l0,.018c0,.009,0,.025.005.047.017.161.061.588.227.588a.117.117,0,0,0,.045-.01c.085-.035.1-.144.115-.24a.625.625,0,0,1,.022-.107A2.149,2.149,0,0,1,5.72.618l0-.006C5.783.521,5.864.4,5.991.4H6A.171.171,0,0,1,6.13.454c.077.09.06.275.044.454s-.033.354.042.434a.209.209,0,0,0,.132.111.5.5,0,0,1,.081.042A.346.346,0,0,0,6.7,1.38a.688.688,0,0,0,.1-.511A1.24,1.24,0,0,0,6.747.66.9.9,0,0,1,6.682.375a.4.4,0,0,1,.074-.2L6.777.136A.508.508,0,0,1,6.866.006h.061l.011.022a1.637,1.637,0,0,1,.141.339,1.744,1.744,0,0,1,.034.406,1.4,1.4,0,0,0,.042.416c.006.019.012.039.017.059.027.1.053.189.148.219a.211.211,0,0,0,.064.01.273.273,0,0,0,.176-.085.407.407,0,0,1,.047-.037A.977.977,0,0,0,7.472.785c-.013-.02-.03-.041-.048-.063a.544.544,0,0,1-.074-.1A.469.469,0,0,1,7.38.242c.03-.084.111-.127.241-.127l.046,0,.019.018c.1.088.352.321.268.442C7.938.61,7.881.62,7.831.629a.345.345,0,0,0-.072.017,2.263,2.263,0,0,0,.212.654.667.667,0,0,0,.155.022.336.336,0,0,0,.1-.014A.356.356,0,0,0,8.3,1.27a.276.276,0,0,1,.1-.044h.01a.046.046,0,0,1,.04.019.2.2,0,0,1,0,.147.509.509,0,0,1-.115.177L8.3,1.6a.249.249,0,0,1-.132.1l-.027,0a.07.07,0,0,1-.07-.033A.43.43,0,0,1,8.1,1.534a.193.193,0,0,0,.007-.024l-.007,0a.157.157,0,0,1-.037-.024c-.053,0-.064.006-.091.028a.918.918,0,0,0-.185.227c-.005.008-.01.018-.015.029a.174.174,0,0,1-.037.057.558.558,0,0,1-.247.073l-.035,0a.339.339,0,0,1-.172-.045.586.586,0,0,1-.142-.129c0-.005-.014-.019-.025-.036-.027-.039-.063-.093-.078-.094a.4.4,0,0,0-.243.132,1.4,1.4,0,0,1-.174.133A.475.475,0,0,1,6.351,1.944ZM4.4,1.825A.144.144,0,0,1,4.3,1.783a.263.263,0,0,1-.09-.22.341.341,0,0,1,.057-.117l0-.006c.018-.029.064-.108.09-.112l.015,0a.053.053,0,0,0,.03-.011l.033.007.027.006a.138.138,0,0,1-.03.1.35.35,0,0,0,.045.223A.214.214,0,0,0,4.606,1.6a.1.1,0,0,0,.015-.016.067.067,0,0,1,.027-.023H4.7c-.039.131-.1.21-.179.235A.378.378,0,0,1,4.4,1.825Zm9.751-.383h0a1,1,0,0,1-.016-.127c0-.017,0-.034.006-.051a.388.388,0,0,0,.005-.09.354.354,0,0,0-.069-.164.742.742,0,0,1-.045-.079C14.026.914,14.016.9,14.006.877a.341.341,0,0,1-.062-.188A.106.106,0,0,1,14.05.6h.012a.184.184,0,0,1,.124.055.411.411,0,0,1,.091.212L14.286.9a.664.664,0,0,1,.014.325.453.453,0,0,1-.06.129.4.4,0,0,1-.085.084ZM3.788,1.423A.61.61,0,0,1,3.57,1.4l-.009-.006-.007-.009a4.5,4.5,0,0,0,.437-.312L4.089,1c.028-.022.058-.043.087-.063A1.313,1.313,0,0,0,4.314.826L4.348.8c.045-.036.1-.081.106-.128S4.417.6,4.375.57A.285.285,0,0,1,4.324.532.2.2,0,0,1,4.289.34.2.2,0,0,1,4.4.2L4.417.187a.171.171,0,0,1,.03-.015A.16.16,0,0,0,4.476.158h0a.333.333,0,0,1,.254.084.218.218,0,0,1,.045.177.175.175,0,0,1-.071.106l0,0c-.027.025-.043.041-.043.057s.012.028.04.053a.09.09,0,0,1,.041.068c0,.04-.046.075-.09.108A.607.607,0,0,0,4.6.862a2.157,2.157,0,0,0-.154.178.923.923,0,0,1-.435.358A.624.624,0,0,1,3.788,1.423Zm.72-1.07a.043.043,0,0,0-.025.008A.085.085,0,0,0,4.458.43a.126.126,0,0,0,.035.1A.1.1,0,0,0,4.551.55.062.062,0,0,0,4.609.5.119.119,0,0,0,4.542.363.071.071,0,0,0,4.509.354ZM9.741.98h0l0-.053c0-.074.007-.15.012-.225A.512.512,0,0,0,9.628.514a.768.768,0,0,1-.085-.1A.126.126,0,0,1,9.528.367.1.1,0,0,0,9.512.325.2.2,0,0,1,9.538.239L9.543.228A.2.2,0,0,0,9.6.2a.284.284,0,0,1,.273.169.636.636,0,0,1-.077.6l-.011,0a.19.19,0,0,1-.047.01ZM.622.769h0A.327.327,0,0,1,.61.628.338.338,0,0,0,.6.483.394.394,0,0,0,.51.366a.375.375,0,0,1-.079-.1A.175.175,0,0,1,.448.14.042.042,0,0,1,.484.116.211.211,0,0,1,.62.144.325.325,0,0,1,.751.45C.751.461.737.732.623.769ZM6.383.647h0a.183.183,0,0,1-.1-.024l-.009,0A.811.811,0,0,1,6.444.032h.045L6.494.04a.059.059,0,0,0,.024.021A.624.624,0,0,1,6.452.53c-.015.036-.029.07-.04.1L6.4.637a.015.015,0,0,0-.009,0l-.006,0ZM5.348.543a.113.113,0,0,1-.1-.058C5.18.381,5.28.2,5.3.159A.332.332,0,0,1,5.407.047.326.326,0,0,1,5.524,0a.026.026,0,0,1,.012,0A.027.027,0,0,1,5.548.02a.156.156,0,0,1-.035.1A.465.465,0,0,1,5.446.2L5.438.209a.092.092,0,0,0-.035.1c.012.059.041.059.078.059h.014a.18.18,0,0,1,.039,0A.223.223,0,0,1,5.348.543Zm-3.269,0A.271.271,0,0,1,1.914.5.194.194,0,0,1,1.8.366.174.174,0,0,1,1.822.2L1.838.162c.08,0,.09.031.1.073a.35.35,0,0,0,.016.039h.01A.09.09,0,0,0,2.02.259a.246.246,0,0,0,.029-.1c.073.007.088.048.1.1A.38.38,0,0,0,2.171.3H2.2c.007-.019.014-.037.02-.055a.535.535,0,0,1,.04-.1h.061l.011.017A.135.135,0,0,1,2.353.2a.3.3,0,0,1,.015.208C2.339.492,2.2.542,2.079.542Z" transform="translate(1.333 4.612)" fill="#fff"/>
    <path id="Fill_2349" data-name="Fill 2349" d="M.191.232S0,.153.07.023A.68.68,0,0,1,.262,0c.121,0,.2.056.146.139s-.1.147.017.147.2.025.084.128S.085.641.019.544.1.384.156.335a.094.094,0,0,0,.035-.1" transform="translate(14.596 8.953)" fill="#fff"/>
    <path id="Fill_2350" data-name="Fill 2350" d="M.137.193s.005.088.05.088S.242.265.252.193.358.145.358.209s.04.1.069.073c0,0-.013-.146.082-.137S.594.312.575.393.449.544.3.544.038.507.006.363.092.087.137.193" transform="translate(10.832 5.728)" fill="#fff"/>
    <path id="Fill_2351" data-name="Fill 2351" d="M.325.268.459.256.522.53S.325.319.325.268" transform="translate(9.653 5.061)" fill="#fff"/>
    <path id="Fill_2352" data-name="Fill 2352" d="M.882.876A1.332,1.332,0,0,1,.907.185c.122-.218.076-.27.232-.009s.363.617.1.64a4.536,4.536,0,0,0,.121,1.008,13.063,13.063,0,0,1,.1,1.829A1.8,1.8,0,0,1,.73,4.688C.416,4.894.08,4.846,0,4.6a8.952,8.952,0,0,0,.8-.5c.313-.246.358-.279.358-.548s-.151-1.615-.151-1.615Z" transform="translate(10.644 4.766)" fill="#fff"/>
    <path id="Fill_2353" data-name="Fill 2353" d="M10.8,1.346h0a.212.212,0,0,1-.21-.13l-1.129.005c-.018.024-.08.1-.15.1A.13.13,0,0,1,9.2,1.244.475.475,0,0,1,9.159.8H9.093C8.548.8,6.64.811,6.263.813H2.616l-1.422,0s-.032,0-.081,0A1.4,1.4,0,0,1,0,.292H0c.01,0,1.278.065,2.127.065.814,0,3.282.013,3.386.014l3.671.01,0,0c-.037-.042-.12-.15-.094-.243C9.106.072,9.171.027,9.28,0A.132.132,0,0,0,9.3.093.026.026,0,0,0,9.32.1c.01,0,.1,0,.13.061s.007.124-.058.222c.309.017.514.029.65.038s.212.013.257.013.16-.014.258-.026c.081-.01.157-.02.185-.02a.435.435,0,0,1,.368.423c.038.343-.037.5-.257.529A.379.379,0,0,1,10.8,1.346Zm-.753-.4a.228.228,0,0,1,.154.068h.327a.164.164,0,0,0,.034-.094A.1.1,0,0,0,10.525.85C10.27.85,9.475.836,9.441.835c0,0-.076.112,0,.181H9.89A.231.231,0,0,1,10.044.949Z" transform="translate(3.4 12.412)" fill="#fff"/>
  </g>
</svg>
