<svg id="success" xmlns="http://www.w3.org/2000/svg" width="209.5" height="189" viewBox="0 0 209.5 189">
  <g id="Effect">
    <path id="Path" d="M5.856.007,6,0A1.5,1.5,0,0,1,7.493,1.356L7.5,1.5v3h3a1.5,1.5,0,0,1,1.493,1.356L12,6a1.5,1.5,0,0,1-1.356,1.493L10.5,7.5h-3v3a1.5,1.5,0,0,1-1.356,1.493L6,12a1.5,1.5,0,0,1-1.493-1.356L4.5,10.5v-3h-3A1.5,1.5,0,0,1,.007,6.144L0,6A1.5,1.5,0,0,1,1.356,4.507L1.5,4.5h3v-3A1.5,1.5,0,0,1,5.856.007L6,0Z" transform="translate(60.5 14)" fill="#eec200"/>
    <path id="Path-2" data-name="Path" d="M5.856.007,6,0A1.5,1.5,0,0,1,7.493,1.356L7.5,1.5v3h3a1.5,1.5,0,0,1,1.493,1.356L12,6a1.5,1.5,0,0,1-1.356,1.493L10.5,7.5h-3v3a1.5,1.5,0,0,1-1.356,1.493L6,12a1.5,1.5,0,0,1-1.493-1.356L4.5,10.5v-3h-3A1.5,1.5,0,0,1,.007,6.144L0,6A1.5,1.5,0,0,1,1.356,4.507L1.5,4.5h3v-3A1.5,1.5,0,0,1,5.856.007L6,0Z" transform="translate(163.5 90)" fill="#8fdf6d"/>
    <path id="Path-3" data-name="Path" d="M5.856.007,6,0A1.5,1.5,0,0,1,7.493,1.356L7.5,1.5v3h3a1.5,1.5,0,0,1,1.493,1.356L12,6a1.5,1.5,0,0,1-1.356,1.493L10.5,7.5h-3v3a1.5,1.5,0,0,1-1.356,1.493L6,12a1.5,1.5,0,0,1-1.493-1.356L4.5,10.5v-3h-3A1.5,1.5,0,0,1,.007,6.144L0,6A1.5,1.5,0,0,1,1.356,4.507L1.5,4.5h3v-3A1.5,1.5,0,0,1,5.856.007L6,0Z" transform="translate(31 121)" fill="#171717"/>
    <path id="Path-4" data-name="Path" d="M5.856.007,6,0A1.5,1.5,0,0,1,7.493,1.356L7.5,1.5v3h3a1.5,1.5,0,0,1,1.493,1.356L12,6a1.5,1.5,0,0,1-1.356,1.493L10.5,7.5h-3v3a1.5,1.5,0,0,1-1.356,1.493L6,12a1.5,1.5,0,0,1-1.493-1.356L4.5,10.5v-3h-3A1.5,1.5,0,0,1,.007,6.144L0,6A1.5,1.5,0,0,1,1.356,4.507L1.5,4.5h3v-3A1.5,1.5,0,0,1,5.856.007L6,0Z" transform="translate(179.5 28)" fill="#171717"/>
    <path id="Path-5" data-name="Path" d="M5.856.007,6,0A1.5,1.5,0,0,1,7.493,1.356L7.5,1.5v3h3a1.5,1.5,0,0,1,1.493,1.356L12,6a1.5,1.5,0,0,1-1.356,1.493L10.5,7.5h-3v3a1.5,1.5,0,0,1-1.356,1.493L6,12a1.5,1.5,0,0,1-1.493-1.356L4.5,10.5v-3h-3A1.5,1.5,0,0,1,.007,6.144L0,6A1.5,1.5,0,0,1,1.356,4.507L1.5,4.5h3v-3A1.5,1.5,0,0,1,5.856.007L6,0Z" transform="translate(73 156)" fill="#eec200"/>
    <path id="Oval" d="M0,4.5A4.5,4.5,0,1,1,4.5,9,4.5,4.5,0,0,1,0,4.5Z" transform="translate(26 57)" fill="#e3d0ff"/>
    <path id="Oval-2" data-name="Oval" d="M0,4.5A4.5,4.5,0,1,1,4.5,9,4.5,4.5,0,0,1,0,4.5Z" transform="translate(122 164)" fill="#fa9a88"/>
    <path id="Oval-3" data-name="Oval" d="M0,4.5A4.5,4.5,0,1,1,4.5,9,4.5,4.5,0,0,1,0,4.5Z" transform="translate(100.5)" fill="#47c1bf"/>
    <path id="Oval-4" data-name="Oval" d="M0,4.5A4.5,4.5,0,1,1,4.5,9,4.5,4.5,0,0,1,0,4.5Z" transform="translate(200.5 71)" fill="#eec200"/>
    <circle id="Oval-5" data-name="Oval" cx="3" cy="3" r="3" transform="translate(156 39.5)" fill="#fa9a88"/>
    <circle id="Oval-6" data-name="Oval" cx="3" cy="3" r="3" transform="translate(39 91)" fill="#bbe5b3"/>
    <circle id="Oval-7" data-name="Oval" cx="3" cy="3" r="3" transform="translate(135 143)" fill="#bbe5b3"/>
    <circle id="Oval-8" data-name="Oval" cx="3" cy="3" r="3" transform="translate(0 66)" fill="#8fdf6d"/>
    <circle id="Oval-9" data-name="Oval" cx="3" cy="3" r="3" transform="translate(184 157)" fill="#00848e"/>
    <circle id="Oval-10" data-name="Oval" cx="3" cy="3" r="3" transform="translate(26 20.5)" fill="#fa9a88"/>
    <circle id="Oval-11" data-name="Oval" cx="3" cy="3" r="3" transform="translate(178 123.5)" fill="#b3bcf5"/>
    <circle id="Oval-12" data-name="Oval" cx="3" cy="3" r="3" transform="translate(145 7.5)" fill="#8fdf6d"/>
    <circle id="Oval-13" data-name="Oval" cx="3" cy="3" r="3" transform="translate(29 165)" fill="#8fdf6d"/>
    <circle id="Oval-14" data-name="Oval" cx="3" cy="3" r="3" transform="translate(5 127)" fill="#eec200"/>
  </g>
  <g id="Group_55194" data-name="Group 55194" transform="translate(-358.662 -266.306)">
    <g id="Group_55178" data-name="Group 55178" transform="translate(405.062 301.868)">
      <g id="Group_55176" data-name="Group 55176" transform="translate(19.379 21.486)">
        <path id="Path_53748" data-name="Path 53748" d="M1236.877,680.091h0c-6.486,0-11.743-4.962-11.741-11.081l.012-47.256v-7.592c0-7.151-3.68-12.949-8.219-12.949H1215.8c-4.539,0-11.986,5.8-11.986,12.949h-35.809v45.8h-22.794v20.132Z" transform="translate(-1114.633 -601.213)" fill="#8a94a3"/>
        <path id="Path_53749" data-name="Path 53749" d="M1226.917,680.091h0c-5.781,0-10.467-4.962-10.466-11.081l.01-47.256v-7.592c0-7.151-3.28-12.949-7.326-12.949h-1.006c-4.046,0-10.683,5.8-10.683,12.949h-31.918v45.8h-20.317v20.132Z" transform="translate(-1114.633 -601.213)" fill="#8a94a3" opacity="0.31" style="mix-blend-mode: multiply;isolation: isolate"/>
        <path id="Path_53750" data-name="Path 53750" d="M1042.1,601.213H966.771c-6.11,0-11.064,5.8-11.064,12.948v.638h-.026V715.849c0,7.151-2.767,12.949-7.8,12.949h75.643c5.028,0,9.1-5.8,9.1-12.949V614.8h0v-.638C1032.629,607.01,1035.992,601.213,1042.1,601.213Z" transform="translate(-938.937 -601.213)" fill="#f6f6f7"/>
        <path id="Path_53751" data-name="Path 53751" d="M960.465,603.318H885.134c-6.11,0-11.064,5.8-11.064,12.949v.638h-.026V717.955c0,7.151-2.767,12.949-7.8,12.949h75.643c5.028,0,9.1-5.8,9.1-12.949V616.905h0v-.638C950.992,609.115,954.355,603.318,960.465,603.318Z" transform="translate(-866.249 -603.087)" fill="#dedede" opacity="0.59" style="mix-blend-mode: multiply;isolation: isolate"/>
      </g>
      <g id="Group_55177" data-name="Group 55177" transform="translate(0 0)">
        <path id="Path_53752" data-name="Path 53752" d="M789.022,541.325v-2.606h.018V418.152c0-7.151-4.584-12.949-10.239-12.949H777.4c-5.655,0-14.932,5.8-14.932,12.949H717.851v45.8h-28.4v77.376c0,7.151,6.412,12.949,14.321,12.949h95.854C791.719,554.274,789.022,548.477,789.022,541.325Z" transform="translate(-689.454 -405.203)" fill="#8a94a3"/>
        <path id="Path_53753" data-name="Path 53753" d="M777.513,541.325v-2.606h.018V418.152c0-7.151-4.568-12.949-10.2-12.949h-1.4c-5.635,0-14.881,5.8-14.881,12.949H717.754v45.8h-28.3v77.376c0,7.151,6.39,12.949,14.272,12.949h84.357C780.2,554.274,777.513,548.477,777.513,541.325Z" transform="translate(-689.454 -405.203)" fill="#8a94a3" opacity="0.31" style="mix-blend-mode: multiply;isolation: isolate"/>
      </g>
    </g>
    <g id="Group_55179" data-name="Group 55179" transform="translate(383.705 301.868)">
      <path id="Path_53754" data-name="Path 53754" d="M497.212,528.919l94.417-.012a2.513,2.513,0,0,0,2.564-2.458h0v-108.3c0-7.151,4.353-12.949,12.262-12.949H508.946c-7.909,0-14.321,5.8-14.321,12.949v108.3h0A2.535,2.535,0,0,0,497.212,528.919Z" transform="translate(-494.625 -405.203)" fill="#fafafa"/>
    </g>
    <g id="Group_55191" data-name="Group 55191" transform="translate(396.113 329.418)">
      <g id="Group_55182" data-name="Group 55182" transform="translate(0 56.309)">
        <path id="Path_53755" data-name="Path 53755" d="M875.276,1266.741H842.418a1.3,1.3,0,0,1-1.3-1.3h0a1.3,1.3,0,0,1,1.3-1.3h32.858a1.3,1.3,0,0,1,1.3,1.3h0A1.3,1.3,0,0,1,875.276,1266.741Z" transform="translate(-815.545 -1253.849)" fill="#a3bbc4"/>
        <rect id="Rectangle_11471" data-name="Rectangle 11471" width="48.609" height="2.597" rx="1.299" transform="translate(25.574 3.175)" fill="#a3bbc4"/>
        <g id="Group_55181" data-name="Group 55181">
          <g id="Group_55180" data-name="Group 55180">
            <path id="Path_53756" data-name="Path 53756" d="M628.019,1190.432h-20.2v-20.2h20.2Zm-17.776-2.427h15.349v-15.349H610.242Z" transform="translate(-607.815 -1170.229)" fill="#a3bbc4"/>
            <path id="Path_53757" data-name="Path 53757" d="M654.617,1229.685l-4.994-4.039,1.857-2.015,2.864,2.316,5.016-5.444,2.13,1.723Z" transform="translate(-645.04 -1214.993)" fill="#c3d82e"/>
          </g>
          <path id="Path_53758" data-name="Path 53758" d="M628.019,1190.432h-20.2v-20.2h20.2Zm-17.776-2.427h15.349v-15.349H610.242Z" transform="translate(-607.815 -1170.229)" fill="#a3bbc4"/>
          <path id="Path_53759" data-name="Path 53759" d="M654.617,1229.685l-4.994-4.039,1.857-2.015,2.864,2.316,5.016-5.444,2.13,1.723Z" transform="translate(-645.04 -1214.993)" fill="#c3d82e"/>
        </g>
      </g>
      <g id="Group_55186" data-name="Group 55186" transform="translate(0 28.129)">
        <path id="Path_53760" data-name="Path 53760" d="M888.429,928.8H842.418a1.3,1.3,0,0,1-1.3-1.3h0a1.3,1.3,0,0,1,1.3-1.3h46.011a1.3,1.3,0,0,1,1.3,1.3h0A1.3,1.3,0,0,1,888.429,928.8Z" transform="translate(-815.545 -924.771)" fill="#a3bbc4"/>
        <path id="Path_53761" data-name="Path 53761" d="M888.429,993.751H842.418a1.3,1.3,0,0,1-1.3-1.3h0a1.3,1.3,0,0,1,1.3-1.3h46.011a1.3,1.3,0,0,1,1.3,1.3h0A1.3,1.3,0,0,1,888.429,993.751Z" transform="translate(-815.545 -982.603)" fill="#a3bbc4"/>
        <path id="Path_53762" data-name="Path 53762" d="M870.934,1058.7H842.418a1.3,1.3,0,0,1-1.3-1.3h0a1.3,1.3,0,0,1,1.3-1.3h28.516a1.3,1.3,0,0,1,1.3,1.3h0A1.3,1.3,0,0,1,870.934,1058.7Z" transform="translate(-815.545 -1040.435)" fill="#a3bbc4"/>
        <g id="Group_55185" data-name="Group 55185">
          <g id="Group_55183" data-name="Group 55183">
            <path id="Path_53763" data-name="Path 53763" d="M628.019,933.353h-20.2v-20.2h20.2Zm-17.776-2.427h15.349V915.576H610.242Z" transform="translate(-607.815 -913.149)" fill="#a3bbc4"/>
          </g>
          <g id="Group_55184" data-name="Group 55184">
            <path id="Path_53764" data-name="Path 53764" d="M628.019,933.353h-20.2v-20.2h20.2Zm-17.776-2.427h15.349V915.576H610.242Z" transform="translate(-607.815 -913.149)" fill="#a3bbc4"/>
          </g>
          <path id="Path_53765" data-name="Path 53765" d="M654.617,972.606l-4.994-4.039,1.857-2.015,2.864,2.316,5.016-5.444,2.13,1.723Z" transform="translate(-645.04 -957.913)" fill="#c3d82e"/>
        </g>
      </g>
      <g id="Group_55190" data-name="Group 55190" transform="translate(0 0)">
        <path id="Path_53766" data-name="Path 53766" d="M888.429,736.039H842.418a1.3,1.3,0,0,1-1.3-1.3h0a1.3,1.3,0,0,1,1.3-1.3h46.011a1.3,1.3,0,0,1,1.3,1.3h0A1.3,1.3,0,0,1,888.429,736.039Z" transform="translate(-815.545 -725.012)" fill="#a3bbc4"/>
        <rect id="Rectangle_11472" data-name="Rectangle 11472" width="48.609" height="2.597" rx="1.299" transform="translate(25.574 1.311)" fill="#a3bbc4"/>
        <g id="Group_55189" data-name="Group 55189">
          <g id="Group_55187" data-name="Group 55187">
            <path id="Path_53767" data-name="Path 53767" d="M628.019,676.737h-20.2v-20.2h20.2Zm-17.776-2.427h15.349V658.96H610.242Z" transform="translate(-607.815 -656.533)" fill="#a3bbc4"/>
          </g>
          <g id="Group_55188" data-name="Group 55188">
            <path id="Path_53768" data-name="Path 53768" d="M628.019,676.737h-20.2v-20.2h20.2Zm-17.776-2.427h15.349V658.96H610.242Z" transform="translate(-607.815 -656.533)" fill="#a3bbc4"/>
          </g>
          <path id="Path_53769" data-name="Path 53769" d="M654.617,715.99l-4.994-4.039,1.857-2.015,2.864,2.316,5.016-5.444,2.13,1.723Z" transform="translate(-645.04 -701.297)" fill="#bede19"/>
        </g>
      </g>
    </g>
    <g id="Group_55192" data-name="Group 55192" transform="translate(370.05 289.147)">
      <path id="Path_53770" data-name="Path 53770" d="M418.256,321.847a1.056,1.056,0,0,1-.369.821,1.307,1.307,0,0,1-1.783-.247l-4.627-5.17a1.214,1.214,0,0,1,0-1.745,1.308,1.308,0,0,1,1.783.247l4.626,5.17A1.4,1.4,0,0,1,418.256,321.847Z" transform="translate(-406.608 -312.394)" fill="#f5f5eb"/>
      <path id="Path_53771" data-name="Path 53771" d="M515.372,290.568v5.6a1.062,1.062,0,0,1-1.26,1.059,1.48,1.48,0,0,1-1.261-1.408v-5.6a1.062,1.062,0,0,1,1.261-1.059A1.481,1.481,0,0,1,515.372,290.568Z" transform="translate(-497.198 -289.147)" fill="#f5f5eb"/>
      <path id="Path_53772" data-name="Path 53772" d="M378.294,411.388a1.062,1.062,0,0,1-1.26,1.059l-5.723-.792a1.48,1.48,0,0,1-1.26-1.408,1.062,1.062,0,0,1,1.26-1.059l5.723.792A1.481,1.481,0,0,1,378.294,411.388Z" transform="translate(-370.05 -396.018)" fill="#f5f5eb"/>
    </g>
    <g id="Group_55193" data-name="Group 55193" transform="translate(465.299 394.725)">
      <ellipse id="Ellipse_908" data-name="Ellipse 908" cx="28.718" cy="30.291" rx="28.718" ry="30.291" transform="translate(2.998 0)" fill="#86b026"/>
      <ellipse id="Ellipse_909" data-name="Ellipse 909" cx="28.718" cy="30.291" rx="28.718" ry="30.291" transform="translate(0 0)" fill="#a4d72e"/>
      <path id="Path_53773" data-name="Path 53773" d="M1113.724,1403.76l-.01.009a4.986,4.986,0,0,0,0,7.01l8.933,8.833a4.385,4.385,0,0,0,6.275-.045l19.312-19.62a4.988,4.988,0,0,0-.045-6.965h0a4.386,4.386,0,0,0-6.29.06l-15.11,15.493a1.385,1.385,0,0,1-1.987.019l-4.848-4.794A4.384,4.384,0,0,0,1113.724,1403.76Z" transform="translate(-1101.165 -1376.407)" fill="#fff"/>
    </g>
  </g>
</svg>
