<svg xmlns="http://www.w3.org/2000/svg" width="22.3" height="22.3" viewBox="0 0 22.3 22.3">
  <g id="edit_profile" transform="translate(0.15 0.15)">
    <path id="user" d="M20.255,13.966a10.3,10.3,0,0,0-2.628-1.645.859.859,0,0,0-.7,1.571,8.6,8.6,0,0,1,2.192,1.366,3.427,3.427,0,0,1,1.161,2.576v1.59a.86.86,0,0,1-.859.859H2.578a.86.86,0,0,1-.859-.859v-1.59A3.427,3.427,0,0,1,2.88,15.257c.868-.763,3.4-2.538,8.12-2.538A6.367,6.367,0,1,0,7.127,11.4a11.947,11.947,0,0,0-5.381,2.566A5.146,5.146,0,0,0,0,17.832v1.59A2.581,2.581,0,0,0,2.578,22H19.422A2.581,2.581,0,0,0,22,19.422v-1.59a5.146,5.146,0,0,0-1.745-3.867ZM6.36,6.36A4.641,4.641,0,1,1,11,11,4.646,4.646,0,0,1,6.36,6.36Zm0,0" transform="translate(0 0)" fill="#464451" stroke="#464451" stroke-width="0.3"/>
  </g>
</svg>
