<svg id="eye" xmlns="http://www.w3.org/2000/svg" xmlns:xlink="http://www.w3.org/1999/xlink" width="18" height="12.272" viewBox="0 0 18 12.272">
  <defs>
    <clipPath id="clip-path">
      <path id="Shape" d="M9,12.272a9.6,9.6,0,0,1-5.5-1.721A9.685,9.685,0,0,1,0,6.136a9.67,9.67,0,0,1,18,0,9.684,9.684,0,0,1-3.5,4.415A9.6,9.6,0,0,1,9,12.272ZM9,2.046a4.091,4.091,0,1,0,4.09,4.091A4.1,4.1,0,0,0,9,2.046ZM9,8.59a2.454,2.454,0,1,1,2.454-2.454A2.457,2.457,0,0,1,9,8.59Z" transform="translate(0 0)" fill="#1e1f20"/>
    </clipPath>
  </defs>
  <path id="Shape-2" data-name="Shape" d="M9,12.272a9.6,9.6,0,0,1-5.5-1.721A9.685,9.685,0,0,1,0,6.136a9.67,9.67,0,0,1,18,0,9.684,9.684,0,0,1-3.5,4.415A9.6,9.6,0,0,1,9,12.272ZM9,2.046a4.091,4.091,0,1,0,4.09,4.091A4.1,4.1,0,0,0,9,2.046ZM9,8.59a2.454,2.454,0,1,1,2.454-2.454A2.457,2.457,0,0,1,9,8.59Z" transform="translate(0 0)" fill="#8f92a1"/>
</svg>
