<svg xmlns="http://www.w3.org/2000/svg" width="41" height="41" viewBox="0 0 41 41">
  <g id="ic" transform="translate(0.5 0.5)">
    <path id="Rounded" d="M28,0H12A12,12,0,0,0,0,12V28A12,12,0,0,0,12,40H28A12,12,0,0,0,40,28V12A12,12,0,0,0,28,0Z" fill="#fff" stroke="#ebebeb" stroke-width="1"/>
    <g id="ic_notification" transform="translate(8 8)">
      <rect id="bound" width="24" height="24" fill="#18304b" opacity="0"/>
      <path id="Fill" d="M9,20a1.952,1.952,0,0,1-1.895-2h3.789A1.951,1.951,0,0,1,9,20Zm9-3H0V16l1.992-2V8.5a6.644,6.644,0,0,1,5.42-6.3V1.5a1.591,1.591,0,0,1,3.177,0v.7a6.65,6.65,0,0,1,5.43,6.3V14L18,16v1ZM9,4C6.135,4,3.975,5.934,3.975,8.5V15H14.006V8.5C14.006,5.934,11.854,4,9,4Z" transform="translate(3 2)" fill="#18304b"/>
    </g>
  </g>
</svg>
