<svg id="log_out" xmlns="http://www.w3.org/2000/svg" width="40" height="40" viewBox="0 0 40 40">
  <path id="Rounded" d="M12,0H28A12,12,0,0,1,40,12V28A12,12,0,0,1,28,40H12A12,12,0,0,1,0,28V12A12,12,0,0,1,12,0Z" fill="#f45540"/>
  <g id="on-off-button" transform="translate(10.588 11.111)">
    <path id="Path_9072" data-name="Path 9072" d="M7.663,8.406v-7a1.4,1.4,0,0,1,2.8,0v7a1.4,1.4,0,1,1-2.8,0Zm6.954-6.351a1.051,1.051,0,0,0-1.3,1.65,6.874,6.874,0,1,1-8.505,0,1.051,1.051,0,1,0-1.3-1.65,8.975,8.975,0,1,0,11.109,0Z" transform="translate(-0.089)" fill="#fff"/>
  </g>
</svg>
