<svg xmlns="http://www.w3.org/2000/svg" width="48" height="48" viewBox="0 0 48 48">
  <g id="Group_55182" data-name="Group 55182" transform="translate(-282.923 -20)">
    <rect id="Rectangle" width="48" height="48" rx="12" transform="translate(282.923 20)" fill="#e3f1df"/>
    <path id="Order" d="M9.114.207,5.909,1.79,2.75.514A2,2,0,0,0,0,2.368V17.886a3,3,0,0,0,3,3H17a3,3,0,0,0,3-3V2.368A2,2,0,0,0,17.251.514L14.091,1.79,10.885.207a2,2,0,0,0-1.771,0ZM6.8,3.584,10,2l3.206,1.583a2.014,2.014,0,0,0,.886.206,1.991,1.991,0,0,0,.749-.145L18,2.368V17.886a1,1,0,0,1-1,1H3a1,1,0,0,1-1-1V2.368L5.16,3.645a2,2,0,0,0,.749.145A2.021,2.021,0,0,0,6.8,3.584ZM5,8.886v2H15v-2Zm0,4v2H15v-2Z" transform="translate(316.923 54.885) rotate(180)" fill="#50b83c"/>
  </g>
</svg>
