<svg id="Search" xmlns="http://www.w3.org/2000/svg" width="17.989" height="17.989" viewBox="0 0 17.989 17.989">
  <path id="Combined_Shape" data-name="Combined Shape" d="M17.269,17.989a.712.712,0,0,1-.508-.212l-3.2-3.2a8.353,8.353,0,0,0,1.018-1.018l-.318-.318a.72.72,0,0,0-1.018,1.018l.318.318a8.265,8.265,0,1,1,1.018-1.018l3.2,3.2a.72.72,0,0,1-.509,1.229ZM8.257,1.439a6.818,6.818,0,1,0,6.818,6.818A6.825,6.825,0,0,0,8.257,1.439Z" fill="#425154"/>
  <path id="Shape" d="M5.7,4.8A5.965,5.965,0,0,1,0,.616L1.69,0A4.179,4.179,0,0,0,5.7,3V4.8Z" transform="translate(3.205 8.867)" fill="#1775bb"/>
</svg>
