<svg xmlns="http://www.w3.org/2000/svg" width="22.251" height="22.513" viewBox="0 0 22.251 22.513">
  <g id="Icon" transform="translate(0.275 0.25)">
    <path id="Fill" d="M13.2,22.013H8.673L7.518,20.857v.023a1.528,1.528,0,0,0-.785-1.189,2.316,2.316,0,0,0-1.157-.251,5.181,5.181,0,0,0-1.272.172l-1.309-.472L.289,15.006.84,13.3l-.027.01a1.7,1.7,0,0,0,.827-1.727,2.047,2.047,0,0,0-.528-1.406,1.855,1.855,0,0,0-.54-.4L0,8.068,3.126,3.133l1.6-.355-.006-.01a2.7,2.7,0,0,0,1.2.37A.806.806,0,0,0,6.4,3.015,3.805,3.805,0,0,0,7.538.939L8.673,0h4.432l1.156,1.155a2.2,2.2,0,0,0,1.075,1.7,1.734,1.734,0,0,0,.916.273,1.785,1.785,0,0,0,.853-.228l1.658.356L21.7,8.188l-.574,1.669.009,0a1.977,1.977,0,0,0-.578.425,1.9,1.9,0,0,0-.513,1.369,1.825,1.825,0,0,0,.457,1.336,1.387,1.387,0,0,0,.329.243l.6,1.755-2.846,4.136-1.472.377,0,0a2.335,2.335,0,0,0-.923-.195,1.663,1.663,0,0,0-.779.182,2.517,2.517,0,0,0-1.079,1.59l-1.134.936ZM5.576,17.13a4.533,4.533,0,0,1,2.333.571,3.911,3.911,0,0,1,1.69,2h2.764c.045-.105.088-.2.131-.287a4.329,4.329,0,0,1,1.85-1.977,3.956,3.956,0,0,1,1.847-.444,4.66,4.66,0,0,1,.975.106l1.706-2.479,0,0,0,0a4.07,4.07,0,0,1-1.129-2.964,4.2,4.2,0,0,1,1.257-3.07c.048-.049.1-.1.163-.153L17.291,5.3a3.982,3.982,0,0,1-1.039.139,4.04,4.04,0,0,1-2.112-.606,4.5,4.5,0,0,1-1.914-2.3c-.025-.067-.05-.138-.075-.219h-2.6A5.256,5.256,0,0,1,7.685,4.934a3.1,3.1,0,0,1-1.764.514A4.368,4.368,0,0,1,4.54,5.212L2.557,8.348l.073.07.049.047a4.306,4.306,0,0,1,1.273,3.064A4.237,4.237,0,0,1,2.9,14.569q-.039.043-.077.084L4.5,17.215A7.159,7.159,0,0,1,5.576,17.13Zm5.272-1.789a4.319,4.319,0,1,1,4.319-4.319A4.324,4.324,0,0,1,10.848,15.341Zm0-6.327a2.008,2.008,0,1,0,2.008,2.008A2.01,2.01,0,0,0,10.848,9.013Z" transform="translate(0)" fill="#18304b" stroke="#f4f5fa" stroke-width="0.5"/>
  </g>
</svg>
