<svg id="Button_Icon" data-name="Button/Icon" xmlns="http://www.w3.org/2000/svg" width="42" height="42" viewBox="0 0 42 42">
  <rect id="Background_Color" data-name="Background Color" width="42" height="42" rx="10" fill="#f7f7fc"/>
  <g id="share" transform="translate(-3.184 11.29)">
    <path id="Path_5751" data-name="Path 5751" d="M28.758,12.583a3.505,3.505,0,0,0-2.774,1.367L20.6,10.944a3.513,3.513,0,0,0,.2-1.155,3.436,3.436,0,0,0-.2-1.159l5.377-3A3.5,3.5,0,1,0,25.253,3.5a3.419,3.419,0,0,0,.2,1.159l-5.373,3a3.5,3.5,0,1,0,.008,4.25l5.377,3.006a3.5,3.5,0,1,0,3.294-2.334Zm0-11.481a2.4,2.4,0,1,1-2.4,2.4A2.406,2.406,0,0,1,28.758,1.1ZM17.306,12.193a2.4,2.4,0,1,1,2.4-2.4A2.406,2.406,0,0,1,17.306,12.193Zm11.453,6.292a2.4,2.4,0,1,1,2.4-2.4A2.406,2.406,0,0,1,28.758,18.484Z" transform="translate(0 0)" fill="#464451" stroke="#464451" stroke-width="1"/>
  </g>
</svg>
