<svg id="translate" xmlns="http://www.w3.org/2000/svg" width="23.188" height="21.08" viewBox="0 0 23.188 21.08">
  <g id="Group_10475" data-name="Group 10475">
    <g id="Group_10474" data-name="Group 10474" transform="translate(0 0)">
      <path id="Path_9070" data-name="Path 9070" d="M12.511,35.114h0L9.834,32.468l.032-.032a18.466,18.466,0,0,0,3.91-6.883h3.088V23.441H9.486V21.333H7.378v2.108H0v2.1H11.773a16.646,16.646,0,0,1-3.341,5.649A16.621,16.621,0,0,1,6,27.657H3.889A18.51,18.51,0,0,0,7.03,32.463l-5.36,5.3,1.491,1.491,5.27-5.27,3.278,3.278Z" transform="translate(0 -21.333)" fill="#18304b"/>
      <path id="Path_9071" data-name="Path 9071" d="M241.517,192h-2.108l-4.743,12.648h2.108l1.186-3.162h5.006l1.186,3.162h2.108Zm-2.767,7.378,1.713-4.569,1.713,4.569Z" transform="translate(-223.072 -183.568)" fill="#18304b"/>
    </g>
  </g>
</svg>
