<svg xmlns="http://www.w3.org/2000/svg" width="55" height="55" viewBox="0 0 55 55">
  <g id="wishlist" transform="translate(0 0)">
    <rect id="label" width="55" height="55" rx="5" transform="translate(0 0)" fill="#18304b"/>
    <g id="icon" transform="translate(13.605 15.41)" fill="none" stroke-linecap="round" stroke-miterlimit="10">
      <path d="M13.629,24.23c25.9-16.551,8.447-30.433,0-21.356C5.182-6.2-12.276,7.678,13.629,24.23Z" stroke="none"/>
      <path d="M 13.62906455993652 21.8405876159668 C 15.91144847869873 20.31491661071777 17.89680480957031 18.76092720031738 19.54243278503418 17.2111701965332 C 21.23763275146484 15.61474800109863 22.58333396911621 14.01382541656494 23.54213333129883 12.452880859375 C 25.08636665344238 9.938858985900879 25.6031665802002 7.58524751663208 25.03667831420898 5.646492004394531 C 24.39938926696777 3.46541428565979 22.34326553344727 2.000003099441528 19.9202880859375 2.000003099441528 C 18.14914512634277 2.000003099441528 16.43482208251953 2.79395866394043 15.0931224822998 4.23561429977417 L 13.62906646728516 5.8087477684021 L 12.16501045227051 4.23561429977417 C 10.82331085205078 2.79395866394043 9.109000205993652 2.000003099441528 7.337844371795654 2.000003099441528 C 4.914310932159424 2.000003099441528 2.857810974121094 3.465447664260864 2.220499753952026 5.646580696105957 C 1.65405535697937 7.585192203521729 2.170944213867188 9.938692092895508 3.715277671813965 12.45264720916748 C 4.674155235290527 14.01358127593994 6.019955158233643 15.61451435089111 7.715266704559326 17.21096992492676 C 9.361010551452637 18.76075553894043 11.34654808044434 20.3148365020752 13.62906455993652 21.8405876159668 M 13.62906646728516 24.22955894470215 C -6.607373237609863 11.29988288879395 -0.3824838101863861 -1.320224328082986e-06 7.337839126586914 -1.320224328082986e-06 C 9.500302314758301 -1.320224328082986e-06 11.78073120117188 0.8870289921760559 13.62906646728516 2.873069763183594 C 15.47791767120361 0.8864749670028687 17.75729370117188 -1.320224328082986e-06 19.9202938079834 -1.320224328082986e-06 C 27.63978004455566 -1.320224328082986e-06 33.86392593383789 11.30089378356934 13.62906646728516 24.22955894470215 Z" stroke="none" fill="#fff"/>
    </g>
  </g>
</svg>
